<svg width="50" height="24" viewBox="0 0 50 24" fill="none" xmlns="http://www.w3.org/2000/svg">
<path d="M49.108 10.5244C49.038 9.68036 48.96 8.72436 48.808 7.90136C48.702 7.32536 48.467 6.55736 47.676 6.55736C47.5968 6.55863 47.5177 6.56397 47.439 6.57336C47.39 6.57336 47.339 6.58436 47.261 6.58636C47.2318 6.55169 47.2112 6.51055 47.201 6.46636C46.5714 5.464 45.733 4.60924 44.743 3.96036C44.435 3.71236 44.066 3.41236 43.909 3.26036C43.9557 3.05114 43.9595 2.83462 43.9202 2.62389C43.8808 2.41316 43.7991 2.21261 43.68 2.03436C43.5837 1.91997 43.4623 1.82926 43.3253 1.76926C43.1884 1.70927 43.0394 1.68159 42.89 1.68836C42.829 1.68836 42.763 1.68836 42.618 1.70536C42.0302 1.64763 41.4473 1.54737 40.874 1.40536C36.8606 0.544518 32.7731 0.0749865 28.669 0.00336221C19.895 -0.166638 13 6.16536 12.716 6.43136L12.516 6.62036C10.9045 7.21611 9.23556 7.64339 7.536 7.89536C2.602 8.86636 1.661 10.4384 1.483 11.0464C0.891622 11.4905 0.487536 12.1397 0.35 12.8664C0.329543 13.1905 0.239139 13.5064 0.085 13.7924L0 13.9034V18.5464L0.01 18.6314C0.277 19.8644 1.555 20.5164 3.71 20.5164C4.10445 20.5191 4.49864 20.4957 4.89 20.4464C4.92 20.4464 5.19 20.4404 5.645 20.4304C5.598 20.3004 5.555 20.1694 5.518 20.0304C5.481 19.8914 5.45 19.7704 5.424 19.6364C5.28791 18.9283 5.30131 18.1996 5.46334 17.4971C5.62537 16.7945 5.93245 16.1336 6.36488 15.5566C6.79732 14.9797 7.34556 14.4995 7.97445 14.1469C8.60334 13.7942 9.29899 13.5769 10.0168 13.5089C10.7346 13.4408 11.4587 13.5236 12.1426 13.7518C12.8266 13.98 13.4552 14.3486 13.9884 14.834C14.5215 15.3195 14.9473 15.9109 15.2384 16.5706C15.5296 17.2302 15.6796 17.9434 15.679 18.6644C15.6771 18.9175 15.6567 19.1702 15.618 19.4204C15.598 19.5554 15.575 19.6884 15.545 19.8204C15.515 19.9524 15.481 20.0894 15.445 20.2204C21.907 20.0824 30.13 19.8994 36.498 19.7394C36.47 19.6084 36.452 19.4764 36.434 19.3394C36.416 19.2024 36.406 19.0754 36.399 18.9394C36.399 18.8464 36.385 18.7544 36.385 18.6594C36.3913 17.3018 36.931 16.001 37.8877 15.0378C38.8444 14.0746 40.1414 13.526 41.4989 13.5105C42.8565 13.4951 44.1657 14.0139 45.1441 14.955C46.1225 15.8962 46.6918 17.1843 46.729 18.5414C46.729 18.5804 46.735 18.6194 46.735 18.6594C46.735 18.7594 46.726 18.8594 46.719 18.9594C46.711 19.1004 46.697 19.2414 46.679 19.3804C47.242 19.3082 47.7788 19.0993 48.2424 18.772C48.7061 18.4446 49.0826 18.0087 49.339 17.5024C49.6673 16.7687 49.8468 15.9773 49.8672 15.1738C49.8876 14.3703 49.7486 13.5707 49.458 12.8214C49.2412 12.0743 49.1236 11.3021 49.108 10.5244Z" fill="#242E42"/>
<path d="M6.48306 20.4114C6.82858 21.2088 7.40373 21.8853 8.13518 22.3546C8.86663 22.8239 9.72127 23.0648 10.5901 23.0466C11.459 23.0283 12.3028 22.7518 13.0139 22.2522C13.725 21.7526 14.2713 21.0526 14.5831 20.2414C14.6331 20.1104 14.6781 19.9774 14.7161 19.8414C14.7541 19.7054 14.7831 19.5774 14.8081 19.4414C14.8545 19.1863 14.8786 18.9276 14.8801 18.6684C14.8817 18.0518 14.7531 17.4418 14.5027 16.8784C14.2522 16.315 13.8857 15.8108 13.4269 15.3988C12.9682 14.9869 12.4276 14.6764 11.8406 14.4878C11.2536 14.2992 10.6334 14.2367 10.0205 14.3043C9.40768 14.372 8.81604 14.5683 8.28431 14.8804C7.75258 15.1926 7.29275 15.6135 6.93493 16.1156C6.57711 16.6177 6.32936 17.1897 6.20789 17.7942C6.08642 18.3987 6.09397 19.022 6.23006 19.6234C6.25852 19.7561 6.29391 19.8873 6.33606 20.0164C6.37806 20.1514 6.42806 20.2824 6.48306 20.4114Z" fill="#242E42"/>
<path d="M37.3029 19.7214C37.5433 20.6924 38.1092 21.5518 38.9064 22.1562C39.7036 22.7606 40.6838 23.0736 41.6837 23.043C42.6836 23.0123 43.6428 22.6399 44.4015 21.9878C45.1601 21.3357 45.6724 20.4433 45.8529 19.4594C45.8769 19.3274 45.8959 19.1944 45.9089 19.0594C45.9219 18.9244 45.9289 18.8014 45.9289 18.6694V18.6594C45.9278 17.498 45.4655 16.3846 44.6435 15.5641C43.8215 14.7436 42.7073 14.2833 41.5459 14.2844C40.3845 14.2854 39.2711 14.7478 38.4507 15.5698C37.6302 16.3917 37.1698 17.506 37.1709 18.6674C37.1709 18.7554 37.1799 18.8404 37.1839 18.9274C37.1919 19.0624 37.2049 19.1944 37.2249 19.3274C37.2449 19.4604 37.2709 19.5884 37.3029 19.7214Z" fill="#242E42"/>
</svg>
