<svg width="30" height="30" viewBox="0 0 30 30" fill="none" xmlns="http://www.w3.org/2000/svg">
<mask id="mask0_1_1117" style="mask-type:luminance" maskUnits="userSpaceOnUse" x="0" y="0" width="30" height="30">
<path d="M30 0H0V30H30V0Z" fill="white"/>
</mask>
<g mask="url(#mask0_1_1117)">
<path d="M15.076 27C14.8533 27.0003 14.633 26.9544 14.429 26.865C14.225 26.7757 14.0418 26.6449 13.891 26.481L13.475 26.024C13.3234 25.8593 13.1393 25.7277 12.9343 25.6375C12.7293 25.5473 12.5079 25.5005 12.284 25.5C12.0679 25.4997 11.8539 25.5433 11.655 25.628L11.08 25.87C10.8811 25.9549 10.6673 25.9991 10.451 26C10.1086 26.0007 9.77493 25.8915 9.49916 25.6884C9.22339 25.4854 9.02005 25.1992 8.91903 24.872L8.74603 24.279C8.65108 23.9614 8.45878 23.6817 8.19627 23.4793C7.93377 23.2769 7.61432 23.162 7.28303 23.151L6.65803 23.127C6.43019 23.1186 6.20677 23.0616 6.00274 22.9599C5.79872 22.8581 5.61879 22.714 5.47502 22.537C5.33603 22.3658 5.23529 22.1668 5.17957 21.9535C5.12386 21.7401 5.11447 21.5173 5.15202 21.3L5.25203 20.692C5.30721 20.3676 5.25768 20.0341 5.11061 19.7398C4.96353 19.4455 4.72656 19.2056 4.43403 19.055L3.87903 18.763C3.68003 18.6597 3.5056 18.5148 3.36756 18.3381C3.22953 18.1614 3.13112 17.9571 3.07903 17.739C3.02852 17.5239 3.02498 17.3005 3.06864 17.0839C3.1123 16.8673 3.20213 16.6627 3.33203 16.484L3.69303 15.984C3.88552 15.7184 3.988 15.3982 3.98548 15.0702C3.98296 14.7422 3.87558 14.4236 3.67903 14.161L3.30703 13.661C3.17621 13.4859 3.08428 13.2849 3.03737 13.0714C2.99046 12.8579 2.98966 12.6368 3.03503 12.423C3.0837 12.2031 3.17908 11.9963 3.31469 11.8165C3.4503 11.6367 3.62298 11.4882 3.82103 11.381L4.37203 11.081C4.66162 10.9255 4.89454 10.6823 5.03736 10.3862C5.18018 10.0901 5.22557 9.75645 5.16703 9.433L5.05303 8.833C5.0125 8.61796 5.0183 8.39676 5.07003 8.18414C5.12176 7.97152 5.21824 7.77238 5.35302 7.6C5.49409 7.42085 5.67181 7.27393 5.87429 7.16907C6.07677 7.06421 6.29931 7.00384 6.52702 6.992L7.15103 6.957C7.48204 6.94194 7.79996 6.82332 8.05994 6.61788C8.31992 6.41244 8.50884 6.13056 8.60003 5.812L8.76403 5.219C8.85958 4.88569 9.06127 4.59266 9.33848 4.38439C9.6157 4.17612 9.95329 4.06398 10.3 4.065C10.5088 4.06485 10.7156 4.10527 10.909 4.184L11.489 4.417C11.6813 4.49579 11.8872 4.53622 12.095 4.536C12.3223 4.53672 12.5472 4.48934 12.7549 4.39696C12.9626 4.30458 13.1484 4.1693 13.3 4L13.712 3.537C13.8626 3.36907 14.0467 3.2345 14.2524 3.14195C14.4581 3.04939 14.6809 3.0009 14.9064 2.99958C15.132 2.99826 15.3553 3.04415 15.5621 3.13429C15.7689 3.22444 15.9545 3.35684 16.107 3.523L16.523 3.98C16.6752 4.14417 16.8596 4.27517 17.0647 4.36482C17.2698 4.45447 17.4912 4.50083 17.715 4.501C17.9308 4.50113 18.1445 4.45759 18.343 4.373L18.918 4.13C19.1169 4.04522 19.3308 4.00103 19.547 4C19.8904 3.99615 20.2256 4.10427 20.5021 4.30798C20.7785 4.51169 20.981 4.7999 21.079 5.129L21.253 5.722C21.348 6.03959 21.5403 6.31933 21.8028 6.52173C22.0653 6.72413 22.3847 6.83895 22.716 6.85L23.341 6.874C23.5686 6.8824 23.7918 6.93929 23.9956 7.04086C24.1995 7.14244 24.3793 7.28636 24.523 7.463C24.6621 7.63418 24.7629 7.83311 24.8188 8.04646C24.8747 8.2598 24.8843 8.48263 24.847 8.7L24.747 9.307C24.692 9.63161 24.7417 9.9653 24.889 10.2598C25.0362 10.5543 25.2733 10.7942 25.566 10.945L26.12 11.237C26.3189 11.34 26.4932 11.4846 26.6313 11.6609C26.7693 11.8373 26.8678 12.0412 26.92 12.259C26.9708 12.4743 26.9746 12.6981 26.9311 12.915C26.8877 13.1319 26.7979 13.3369 26.668 13.516L26.306 14.016C26.1139 14.2816 26.0117 14.6015 26.0142 14.9293C26.0167 15.2571 26.1239 15.5754 26.32 15.838L26.693 16.338C26.8252 16.5145 26.9177 16.7175 26.9643 16.933C27.0109 17.1486 27.0104 17.3716 26.963 17.587C26.9136 17.8065 26.8174 18.0127 26.6811 18.1916C26.5447 18.3706 26.3715 18.518 26.173 18.624L25.622 18.924C25.3328 19.0798 25.1003 19.3232 24.9578 19.6192C24.8154 19.9152 24.7703 20.2488 24.829 20.572L24.943 21.172C24.9835 21.3869 24.9776 21.6079 24.9259 21.8204C24.8742 22.0328 24.7777 22.2318 24.643 22.404C24.5021 22.5833 24.3244 22.7304 24.1219 22.8355C23.9194 22.9405 23.6968 23.001 23.469 23.013L22.843 23.047C22.5121 23.0628 22.1944 23.182 21.9347 23.3878C21.6749 23.5935 21.4862 23.8755 21.395 24.194L21.231 24.787C21.1352 25.1206 20.9332 25.4137 20.6556 25.622C20.378 25.8303 20.0401 25.9423 19.693 25.941C19.4846 25.941 19.2781 25.9006 19.085 25.822L18.505 25.589C18.3125 25.5095 18.1063 25.4688 17.898 25.469C17.6715 25.469 17.4475 25.5169 17.2407 25.6094C17.0339 25.702 16.849 25.8371 16.698 26.006L16.286 26.468C16.1335 26.6374 15.9468 26.7724 15.7382 26.8641C15.5296 26.9558 15.3039 27.0021 15.076 27ZM11.987 17.656C11.846 17.656 11.776 17.784 11.705 18.004C11.62 18.261 11.545 18.526 11.473 18.783L11.412 19C11.288 19.451 11.337 19.557 11.764 19.758C12.3179 20.008 12.9061 20.1735 13.509 20.249C13.981 20.322 13.995 20.338 14 20.822C14 21.034 14 21.254 14.005 21.472C13.9978 21.5302 14.0038 21.5894 14.0226 21.645C14.0414 21.7006 14.0724 21.7512 14.1134 21.7932C14.1544 21.8352 14.2044 21.8674 14.2595 21.8874C14.3147 21.9075 14.3736 21.9148 14.432 21.909C14.595 21.909 14.76 21.916 14.923 21.916C15.086 21.916 15.251 21.916 15.414 21.909C15.4694 21.9148 15.5254 21.908 15.5778 21.8893C15.6303 21.8705 15.6778 21.8401 15.7169 21.8004C15.756 21.7608 15.7857 21.7128 15.8037 21.6601C15.8217 21.6074 15.8276 21.5513 15.821 21.496C15.821 21.396 15.821 21.296 15.821 21.196C15.821 20.996 15.827 20.796 15.821 20.596C15.8116 20.5333 15.8151 20.4694 15.8311 20.4081C15.8472 20.3468 15.8755 20.2894 15.9144 20.2394C15.9533 20.1893 16.002 20.1477 16.0574 20.1171C16.1129 20.0864 16.174 20.0673 16.237 20.061C16.9068 19.8885 17.5062 19.5118 17.952 18.983C18.2352 18.6538 18.4405 18.265 18.5527 17.8455C18.6649 17.426 18.6811 16.9866 18.6 16.56C18.508 16.0955 18.3141 15.6573 18.0322 15.2769C17.7503 14.8964 17.3876 14.5833 16.97 14.36C16.4958 14.1142 16.008 13.8955 15.509 13.705L15.244 13.598C14.9046 13.472 14.5855 13.2968 14.297 13.078C14.1747 12.994 14.077 12.879 14.0139 12.7447C13.9508 12.6104 13.9246 12.4618 13.938 12.314C13.964 12.1627 14.0297 12.021 14.1285 11.9034C14.2272 11.7859 14.3555 11.6967 14.5 11.645C14.685 11.571 14.8818 11.5311 15.081 11.527C15.165 11.527 15.249 11.521 15.332 11.521C15.9976 11.5189 16.6553 11.6655 17.257 11.95C17.3468 12.0005 17.4464 12.0312 17.549 12.04C17.677 12.04 17.754 11.952 17.833 11.714C17.933 11.414 18.02 11.114 18.105 10.814V10.799L18.165 10.59C18.1845 10.5385 18.193 10.4835 18.1902 10.4284C18.1874 10.3734 18.1732 10.3196 18.1486 10.2703C18.124 10.221 18.0895 10.1773 18.0473 10.142C18.005 10.1067 17.9559 10.0805 17.903 10.065C17.4645 9.87302 17.003 9.73858 16.53 9.665C15.91 9.574 15.91 9.574 15.905 8.972V8.957C15.9 8.091 15.9 8.091 15.017 8.091H14.76H14.631C14.214 8.101 14.144 8.17 14.131 8.582V9.131C14.126 9.666 14.126 9.666 13.621 9.845L13.595 9.854C12.9983 10.0151 12.4684 10.3622 12.0821 10.8448C11.6959 11.3274 11.4735 11.9204 11.447 12.538C11.4178 13.0848 11.5534 13.6277 11.8364 14.0965C12.1193 14.5652 12.5366 14.9382 13.034 15.167C13.4718 15.4105 13.9283 15.6188 14.399 15.79C14.599 15.87 14.812 15.953 15.016 16.04C15.2753 16.1463 15.5192 16.2868 15.741 16.458C15.8874 16.5593 16.0027 16.6993 16.0741 16.8623C16.1456 17.0254 16.1703 17.205 16.1456 17.3813C16.121 17.5576 16.0478 17.7235 15.9344 17.8607C15.8209 17.9978 15.6716 18.1008 15.503 18.158C15.2077 18.2834 14.8899 18.347 14.569 18.345C14.455 18.3449 14.3412 18.3379 14.228 18.324C13.5531 18.2511 12.8966 18.0588 12.289 17.756C12.1969 17.701 12.0938 17.6668 11.987 17.656Z" fill="black"/>
<mask id="mask1_1_1117" style="mask-type:luminance" maskUnits="userSpaceOnUse" x="3" y="2" width="24" height="25">
<path d="M15.076 27C14.8533 27.0003 14.633 26.9544 14.429 26.865C14.225 26.7757 14.0418 26.6449 13.891 26.481L13.475 26.024C13.3234 25.8593 13.1393 25.7277 12.9343 25.6375C12.7293 25.5473 12.5079 25.5005 12.284 25.5C12.0679 25.4997 11.8539 25.5433 11.655 25.628L11.08 25.87C10.8811 25.9549 10.6673 25.9991 10.451 26C10.1086 26.0007 9.77493 25.8915 9.49916 25.6884C9.22339 25.4854 9.02005 25.1992 8.91903 24.872L8.74603 24.279C8.65108 23.9614 8.45878 23.6817 8.19627 23.4793C7.93377 23.2769 7.61432 23.162 7.28303 23.151L6.65803 23.127C6.43019 23.1186 6.20677 23.0616 6.00274 22.9599C5.79872 22.8581 5.61879 22.714 5.47502 22.537C5.33603 22.3658 5.23529 22.1668 5.17957 21.9535C5.12386 21.7401 5.11447 21.5173 5.15202 21.3L5.25203 20.692C5.30721 20.3676 5.25768 20.0341 5.11061 19.7398C4.96353 19.4455 4.72656 19.2056 4.43403 19.055L3.87903 18.763C3.68003 18.6597 3.5056 18.5148 3.36756 18.3381C3.22953 18.1614 3.13112 17.9571 3.07903 17.739C3.02852 17.5239 3.02498 17.3005 3.06864 17.0839C3.1123 16.8673 3.20213 16.6627 3.33203 16.484L3.69303 15.984C3.88552 15.7184 3.988 15.3982 3.98548 15.0702C3.98296 14.7422 3.87558 14.4236 3.67903 14.161L3.30703 13.661C3.17621 13.4859 3.08428 13.2849 3.03737 13.0714C2.99046 12.8579 2.98966 12.6368 3.03503 12.423C3.0837 12.2031 3.17908 11.9963 3.31469 11.8165C3.4503 11.6367 3.62298 11.4882 3.82103 11.381L4.37203 11.081C4.66162 10.9255 4.89454 10.6823 5.03736 10.3862C5.18018 10.0901 5.22557 9.75645 5.16703 9.433L5.05303 8.833C5.0125 8.61796 5.0183 8.39676 5.07003 8.18414C5.12176 7.97152 5.21824 7.77238 5.35302 7.6C5.49409 7.42085 5.67181 7.27393 5.87429 7.16907C6.07677 7.06421 6.29931 7.00384 6.52702 6.992L7.15103 6.957C7.48204 6.94194 7.79996 6.82332 8.05994 6.61788C8.31992 6.41244 8.50884 6.13056 8.60003 5.812L8.76403 5.219C8.85958 4.88569 9.06127 4.59266 9.33848 4.38439C9.6157 4.17612 9.95329 4.06398 10.3 4.065C10.5088 4.06485 10.7156 4.10527 10.909 4.184L11.489 4.417C11.6813 4.49579 11.8872 4.53622 12.095 4.536C12.3223 4.53672 12.5472 4.48934 12.7549 4.39696C12.9626 4.30458 13.1484 4.1693 13.3 4L13.712 3.537C13.8626 3.36907 14.0467 3.2345 14.2524 3.14195C14.4581 3.04939 14.6809 3.0009 14.9064 2.99958C15.132 2.99826 15.3553 3.04415 15.5621 3.13429C15.7689 3.22444 15.9545 3.35684 16.107 3.523L16.523 3.98C16.6752 4.14417 16.8596 4.27517 17.0647 4.36482C17.2698 4.45447 17.4912 4.50083 17.715 4.501C17.9308 4.50113 18.1445 4.45759 18.343 4.373L18.918 4.13C19.1169 4.04522 19.3308 4.00103 19.547 4C19.8904 3.99615 20.2256 4.10427 20.5021 4.30798C20.7785 4.51169 20.981 4.7999 21.079 5.129L21.253 5.722C21.348 6.03959 21.5403 6.31933 21.8028 6.52173C22.0653 6.72413 22.3847 6.83895 22.716 6.85L23.341 6.874C23.5686 6.8824 23.7918 6.93929 23.9956 7.04086C24.1995 7.14244 24.3793 7.28636 24.523 7.463C24.6621 7.63418 24.7629 7.83311 24.8188 8.04646C24.8747 8.2598 24.8843 8.48263 24.847 8.7L24.747 9.307C24.692 9.63161 24.7417 9.9653 24.889 10.2598C25.0362 10.5543 25.2733 10.7942 25.566 10.945L26.12 11.237C26.3189 11.34 26.4932 11.4846 26.6313 11.6609C26.7693 11.8373 26.8678 12.0412 26.92 12.259C26.9708 12.4743 26.9746 12.6981 26.9311 12.915C26.8877 13.1319 26.7979 13.3369 26.668 13.516L26.306 14.016C26.1139 14.2816 26.0117 14.6015 26.0142 14.9293C26.0167 15.2571 26.1239 15.5754 26.32 15.838L26.693 16.338C26.8252 16.5145 26.9177 16.7175 26.9643 16.933C27.0109 17.1486 27.0104 17.3716 26.963 17.587C26.9136 17.8065 26.8174 18.0127 26.6811 18.1916C26.5447 18.3706 26.3715 18.518 26.173 18.624L25.622 18.924C25.3328 19.0798 25.1003 19.3232 24.9578 19.6192C24.8154 19.9152 24.7703 20.2488 24.829 20.572L24.943 21.172C24.9835 21.3869 24.9776 21.6079 24.9259 21.8204C24.8742 22.0328 24.7777 22.2318 24.643 22.404C24.5021 22.5833 24.3244 22.7304 24.1219 22.8355C23.9194 22.9405 23.6968 23.001 23.469 23.013L22.843 23.047C22.5121 23.0628 22.1944 23.182 21.9347 23.3878C21.6749 23.5935 21.4862 23.8755 21.395 24.194L21.231 24.787C21.1352 25.1206 20.9332 25.4137 20.6556 25.622C20.378 25.8303 20.0401 25.9423 19.693 25.941C19.4846 25.941 19.2781 25.9006 19.085 25.822L18.505 25.589C18.3125 25.5095 18.1063 25.4688 17.898 25.469C17.6715 25.469 17.4475 25.5169 17.2407 25.6094C17.0339 25.702 16.849 25.8371 16.698 26.006L16.286 26.468C16.1335 26.6374 15.9468 26.7724 15.7382 26.8641C15.5296 26.9558 15.3039 27.0021 15.076 27ZM11.987 17.656C11.846 17.656 11.776 17.784 11.705 18.004C11.62 18.261 11.545 18.526 11.473 18.783L11.412 19C11.288 19.451 11.337 19.557 11.764 19.758C12.3179 20.008 12.9061 20.1735 13.509 20.249C13.981 20.322 13.995 20.338 14 20.822C14 21.034 14 21.254 14.005 21.472C13.9978 21.5302 14.0038 21.5894 14.0226 21.645C14.0414 21.7006 14.0724 21.7512 14.1134 21.7932C14.1544 21.8352 14.2044 21.8674 14.2595 21.8874C14.3147 21.9075 14.3736 21.9148 14.432 21.909C14.595 21.909 14.76 21.916 14.923 21.916C15.086 21.916 15.251 21.916 15.414 21.909C15.4694 21.9148 15.5254 21.908 15.5778 21.8893C15.6303 21.8705 15.6778 21.8401 15.7169 21.8004C15.756 21.7608 15.7857 21.7128 15.8037 21.6601C15.8217 21.6074 15.8276 21.5513 15.821 21.496C15.821 21.396 15.821 21.296 15.821 21.196C15.821 20.996 15.827 20.796 15.821 20.596C15.8116 20.5333 15.8151 20.4694 15.8311 20.4081C15.8472 20.3468 15.8755 20.2894 15.9144 20.2394C15.9533 20.1893 16.002 20.1477 16.0574 20.1171C16.1129 20.0864 16.174 20.0673 16.237 20.061C16.9068 19.8885 17.5062 19.5118 17.952 18.983C18.2352 18.6538 18.4405 18.265 18.5527 17.8455C18.6649 17.426 18.6811 16.9866 18.6 16.56C18.508 16.0955 18.3141 15.6573 18.0322 15.2769C17.7503 14.8964 17.3876 14.5833 16.97 14.36C16.4958 14.1142 16.008 13.8955 15.509 13.705L15.244 13.598C14.9046 13.472 14.5855 13.2968 14.297 13.078C14.1747 12.994 14.077 12.879 14.0139 12.7447C13.9508 12.6104 13.9246 12.4618 13.938 12.314C13.964 12.1627 14.0297 12.021 14.1285 11.9034C14.2272 11.7859 14.3555 11.6967 14.5 11.645C14.685 11.571 14.8818 11.5311 15.081 11.527C15.165 11.527 15.249 11.521 15.332 11.521C15.9976 11.5189 16.6553 11.6655 17.257 11.95C17.3468 12.0005 17.4464 12.0312 17.549 12.04C17.677 12.04 17.754 11.952 17.833 11.714C17.933 11.414 18.02 11.114 18.105 10.814V10.799L18.165 10.59C18.1845 10.5385 18.193 10.4835 18.1902 10.4284C18.1874 10.3734 18.1732 10.3196 18.1486 10.2703C18.124 10.221 18.0895 10.1773 18.0473 10.142C18.005 10.1067 17.9559 10.0805 17.903 10.065C17.4645 9.87302 17.003 9.73858 16.53 9.665C15.91 9.574 15.91 9.574 15.905 8.972V8.957C15.9 8.091 15.9 8.091 15.017 8.091H14.76H14.631C14.214 8.101 14.144 8.17 14.131 8.582V9.131C14.126 9.666 14.126 9.666 13.621 9.845L13.595 9.854C12.9983 10.0151 12.4684 10.3622 12.0821 10.8448C11.6959 11.3274 11.4735 11.9204 11.447 12.538C11.4178 13.0848 11.5534 13.6277 11.8364 14.0965C12.1193 14.5652 12.5366 14.9382 13.034 15.167C13.4718 15.4105 13.9283 15.6188 14.399 15.79C14.599 15.87 14.812 15.953 15.016 16.04C15.2753 16.1463 15.5192 16.2868 15.741 16.458C15.8874 16.5593 16.0027 16.6993 16.0741 16.8623C16.1456 17.0254 16.1703 17.205 16.1456 17.3813C16.121 17.5576 16.0478 17.7235 15.9344 17.8607C15.8209 17.9978 15.6716 18.1008 15.503 18.158C15.2077 18.2834 14.8899 18.347 14.569 18.345C14.455 18.3449 14.3412 18.3379 14.228 18.324C13.5531 18.2511 12.8966 18.0588 12.289 17.756C12.1969 17.701 12.0938 17.6668 11.987 17.656Z" fill="white"/>
</mask>
<g mask="url(#mask1_1_1117)">
<path d="M30 0H0V30H30V0Z" fill="#fff"/>
</g>
</g>
</svg>
