<svg width="30" height="24" viewBox="0 0 30 24" fill="none" xmlns="http://www.w3.org/2000/svg">
<path d="M27.5 23.333H2.5C1.83696 23.333 1.20107 23.0696 0.732233 22.6008C0.263392 22.1319 0 21.496 0 20.833L0 2.5C0 1.83696 0.263392 1.20107 0.732233 0.732233C1.20107 0.263392 1.83696 0 2.5 0L27.5 0C28.163 0 28.7989 0.263392 29.2678 0.732233C29.7366 1.20107 30 1.83696 30 2.5V20.833C30 21.496 29.7366 22.1319 29.2678 22.6008C28.7989 23.0696 28.163 23.333 27.5 23.333ZM18.793 18.645C18.6602 18.6457 18.5289 18.6726 18.4065 18.7241C18.2841 18.7755 18.1731 18.8506 18.0797 18.945C17.8912 19.1356 17.786 19.3934 17.7875 19.6615C17.789 19.9296 17.8969 20.1862 18.0875 20.3748C18.2781 20.5633 18.5359 20.6685 18.804 20.667C19.0489 20.6714 19.2877 20.5901 19.479 20.437L19.279 20.099C19.1378 20.2025 18.968 20.2598 18.793 20.263C18.7128 20.2659 18.6328 20.2518 18.5584 20.2218C18.4839 20.1918 18.4166 20.1465 18.3608 20.0887C18.305 20.031 18.2619 19.9623 18.2344 19.8869C18.2069 19.8114 18.1955 19.7311 18.201 19.651C18.1946 19.5716 18.2051 19.4917 18.2317 19.4166C18.2584 19.3415 18.3007 19.2729 18.3557 19.2153C18.4108 19.1577 18.4774 19.1124 18.5512 19.0823C18.625 19.0523 18.7044 19.0382 18.784 19.041C18.9648 19.0441 19.1399 19.1047 19.284 19.214L19.484 18.876C19.2864 18.7239 19.0434 18.6425 18.794 18.645H18.793ZM24.515 18.645C24.2739 18.6461 24.0421 18.7382 23.866 18.903C23.7662 19 23.688 19.1169 23.6363 19.2461C23.5846 19.3753 23.5607 19.5139 23.566 19.653C23.5601 19.7832 23.5806 19.9133 23.6263 20.0353C23.672 20.1574 23.7419 20.269 23.8319 20.3633C23.9219 20.4576 24.0301 20.5326 24.1499 20.584C24.2697 20.6353 24.3987 20.6619 24.529 20.662C24.6437 20.667 24.7579 20.6437 24.8615 20.5942C24.9651 20.5447 25.0549 20.4704 25.123 20.378V20.617H25.534V17.922H25.12V18.927C25.0486 18.8357 24.9567 18.7625 24.8518 18.7131C24.7469 18.6638 24.6319 18.6398 24.516 18.643L24.515 18.645ZM20.649 18.645C20.4084 18.6459 20.1769 18.7369 20 18.9C19.8996 18.996 19.8204 19.112 19.7677 19.2405C19.715 19.369 19.6899 19.5072 19.694 19.646C19.6882 19.7763 19.7088 19.9065 19.7547 20.0287C19.8006 20.1508 19.8707 20.2624 19.9609 20.3567C20.0511 20.451 20.1595 20.526 20.2794 20.5773C20.3994 20.6286 20.5285 20.655 20.659 20.655C20.7734 20.6597 20.8872 20.6362 20.9904 20.5867C21.0936 20.5372 21.1831 20.4631 21.251 20.371V20.61H21.678V18.7H21.25V18.929C21.1792 18.8379 21.0881 18.7647 20.9839 18.7152C20.8797 18.6657 20.7653 18.6413 20.65 18.644L20.649 18.645ZM12.306 18.699V19.08H12.706V19.949C12.706 20.568 13.106 20.66 13.351 20.66C13.5376 20.661 13.7211 20.6116 13.882 20.517L13.768 20.163C13.6592 20.2212 13.5392 20.2553 13.416 20.263C13.3431 20.268 13.2712 20.2439 13.216 20.196C13.1858 20.1626 13.1628 20.1233 13.1484 20.0807C13.1339 20.038 13.1283 19.9929 13.132 19.948V19.084H13.814V18.7H13.13V18.117H12.7V18.7L12.306 18.699ZM10.52 20.099L10.337 20.427C10.5846 20.5845 10.8726 20.6665 11.166 20.663C11.3782 20.6695 11.588 20.6169 11.772 20.511C11.8536 20.462 11.921 20.3924 11.9673 20.3093C12.0136 20.2261 12.0373 20.1322 12.036 20.037C12.036 19.573 11.613 19.509 11.274 19.457C11.043 19.423 10.844 19.393 10.844 19.245C10.844 19.097 10.975 19.033 11.202 19.033C11.4115 19.037 11.6171 19.0904 11.802 19.189L11.974 18.85C11.7456 18.7175 11.486 18.6485 11.222 18.65C10.822 18.65 10.4 18.815 10.4 19.277C10.4 19.72 10.822 19.789 11.161 19.845H11.167C11.396 19.883 11.594 19.916 11.594 20.057C11.594 20.198 11.442 20.299 11.186 20.299C10.9483 20.295 10.7162 20.2258 10.515 20.099H10.52ZM15.1 18.641C14.97 18.6388 14.8409 18.6638 14.7211 18.7143C14.6012 18.7648 14.4932 18.8397 14.4039 18.9342C14.3146 19.0288 14.246 19.1409 14.2025 19.2635C14.1589 19.386 14.1414 19.5163 14.151 19.646C14.143 19.7799 14.1632 19.9139 14.2105 20.0395C14.2578 20.165 14.331 20.2791 14.4254 20.3744C14.5197 20.4697 14.6331 20.5441 14.7582 20.5926C14.8832 20.6411 15.017 20.6627 15.151 20.656C15.4278 20.6581 15.6963 20.5621 15.909 20.385L15.709 20.073C15.5495 20.207 15.3492 20.2829 15.141 20.288C15.0047 20.2931 14.8712 20.2481 14.7658 20.1615C14.6604 20.0749 14.5904 19.9527 14.569 19.818H16.002C16.0313 19.4741 15.9235 19.1326 15.702 18.868C15.6221 18.7916 15.5276 18.7322 15.4241 18.6932C15.3207 18.6542 15.2105 18.6364 15.1 18.641ZM8.907 18.646C8.65142 18.6621 8.41158 18.775 8.23629 18.9617C8.061 19.1484 7.96344 19.3949 7.96344 19.651C7.96344 19.9071 8.061 20.1536 8.23629 20.3403C8.41158 20.527 8.65142 20.6399 8.907 20.656C9.0237 20.6622 9.14016 20.6398 9.24627 20.5909C9.35239 20.5419 9.44497 20.4678 9.516 20.375V20.614H9.927V18.7H9.516V18.929C9.44336 18.8376 9.35039 18.7644 9.24449 18.7153C9.13859 18.6662 9.02369 18.6424 8.907 18.646ZM26.074 20.261H26.058H26.05C26.0343 20.2671 26.0178 20.2704 26.001 20.271C25.98 20.2821 25.9605 20.2958 25.943 20.312C25.9323 20.318 25.923 20.3263 25.9159 20.3363C25.9088 20.3464 25.904 20.3579 25.902 20.37C25.8897 20.3958 25.8845 20.4245 25.887 20.453C25.8859 20.4782 25.891 20.5033 25.902 20.526C25.904 20.5381 25.9088 20.5496 25.9159 20.5597C25.923 20.5697 25.9323 20.578 25.943 20.584C25.9585 20.6032 25.9779 20.6189 26 20.63C26.0224 20.6419 26.0477 20.6475 26.073 20.646C26.1016 20.6487 26.1304 20.6431 26.156 20.63C26.1618 20.6247 26.1682 20.62 26.175 20.616H26.181C26.1928 20.61 26.2035 20.6022 26.213 20.593C26.2214 20.5848 26.2285 20.5754 26.234 20.565C26.2398 20.5542 26.2469 20.5442 26.255 20.535C26.2666 20.5125 26.2721 20.4873 26.271 20.462C26.2735 20.4334 26.268 20.4046 26.255 20.379C26.2485 20.3719 26.2428 20.3642 26.238 20.356C26.232 20.3451 26.2246 20.335 26.216 20.326C26.2099 20.3203 26.2032 20.3153 26.196 20.311L26.187 20.305C26.1767 20.2993 26.167 20.2926 26.158 20.285C26.1444 20.2843 26.131 20.282 26.118 20.278C26.1039 20.2701 26.0898 20.2644 26.074 20.261ZM22.229 18.7V20.612H22.64V19.531C22.64 19.084 22.928 19.031 23.052 19.031C23.1402 19.0313 23.2273 19.0512 23.307 19.089L23.432 18.689C23.3435 18.6513 23.2482 18.6322 23.152 18.633C23.0487 18.6288 22.9462 18.6532 22.8559 18.7035C22.7656 18.7538 22.6909 18.828 22.64 18.918V18.7H22.229ZM16.429 18.7V20.612H16.857V19.531C16.857 19.098 17.11 19.031 17.257 19.031C17.3475 19.033 17.4366 19.0535 17.519 19.091L17.644 18.691C17.5543 18.6523 17.4577 18.6322 17.36 18.632C17.2572 18.6294 17.1556 18.6548 17.0661 18.7056C16.9766 18.7563 16.9026 18.8304 16.852 18.92V18.7H16.429ZM6.741 19.039C6.79408 19.0348 6.84746 19.0415 6.89785 19.0587C6.94824 19.0759 6.99457 19.1032 7.034 19.139C7.188 19.296 7.183 19.626 7.174 20.126V20.244C7.174 20.357 7.174 20.482 7.174 20.612H7.6V19.412H7.59C7.59455 19.3102 7.57785 19.2087 7.54095 19.1137C7.50406 19.0188 7.44778 18.9326 7.3757 18.8606C7.30363 18.7886 7.21735 18.7324 7.12236 18.6957C7.02737 18.6589 6.92575 18.6423 6.824 18.647C6.6929 18.6396 6.56216 18.6669 6.44502 18.7263C6.32789 18.7856 6.22853 18.8749 6.157 18.985C6.09239 18.8758 5.99896 18.7865 5.88695 18.7269C5.77494 18.6672 5.64867 18.6396 5.522 18.647C5.41402 18.6451 5.30723 18.6697 5.21099 18.7187C5.11475 18.7677 5.032 18.8396 4.97 18.928V18.7H4.541V20.612H4.968C4.968 20.543 4.968 20.48 4.968 20.412V20.236V20.161C4.956 19.672 4.948 19.318 5.112 19.15C5.1566 19.1097 5.20898 19.079 5.2659 19.0597C5.32283 19.0405 5.3831 19.0331 5.443 19.038C5.49576 19.0339 5.54879 19.0407 5.59884 19.0579C5.64888 19.0751 5.69488 19.1024 5.734 19.138C5.889 19.296 5.883 19.627 5.874 20.127V20.247C5.874 20.36 5.874 20.483 5.874 20.611H6.285C6.285 20.541 6.285 20.476 6.285 20.411V20.253V20.183C6.273 19.683 6.265 19.329 6.433 19.156C6.47454 19.1165 6.52351 19.0856 6.57707 19.0652C6.63063 19.0448 6.68771 19.0352 6.745 19.037L6.741 19.039ZM10.536 2.573C9.41209 2.57491 8.3042 2.83968 7.30088 3.34617C6.29755 3.85266 5.42661 4.58682 4.75766 5.48997C4.0887 6.39312 3.64028 7.44023 3.44822 8.54761C3.25616 9.655 3.3258 10.792 3.65156 11.8676C3.97732 12.9433 4.55018 13.9278 5.32436 14.7426C6.09853 15.5574 7.05255 16.1798 8.11019 16.56C9.16782 16.9403 10.2997 17.0679 11.4155 16.9326C12.5312 16.7973 13.5999 16.403 14.536 15.781C13.6488 15.0524 12.9341 14.1362 12.4433 13.0983C11.9526 12.0604 11.6981 10.9266 11.6981 9.7785C11.6981 8.63043 11.9526 7.49664 12.4433 6.45873C12.9341 5.42081 13.6488 4.50459 14.536 3.776C13.3554 2.99182 11.9693 2.57431 10.552 2.576H10.541L10.536 2.573ZM19.453 2.568C18.0357 2.5686 16.6499 2.98591 15.468 3.768C16.3641 4.50468 17.0841 5.4325 17.5751 6.48348C18.0662 7.53447 18.3159 8.682 18.306 9.842C18.3052 10.9797 18.0499 12.1027 17.5588 13.129C17.0678 14.1552 16.3534 15.0586 15.468 15.773C16.6514 16.5519 18.0363 16.9689 19.453 16.973H19.463C20.4093 16.9723 21.3462 16.7853 22.2202 16.4226C23.0943 16.0598 23.8883 15.5285 24.5569 14.8589C25.2256 14.1893 25.7559 13.3945 26.1174 12.52C26.4789 11.6455 26.6647 10.7083 26.664 9.762C26.6633 8.81569 26.4763 7.87878 26.1136 7.00476C25.7508 6.13074 25.2195 5.33673 24.5499 4.66805C23.8803 3.99938 23.0855 3.46914 22.211 3.10761C21.3365 2.74608 20.3993 2.56034 19.453 2.561V2.568ZM15 4.109C14.1371 4.78627 13.4408 5.65209 12.9643 6.6401C12.4878 7.62812 12.2438 8.71211 12.251 9.809C12.249 10.8949 12.4957 11.9668 12.9723 12.9425C13.4488 13.9183 14.1424 14.7719 15 15.438C15.8565 14.763 16.5488 13.9026 17.0248 12.9215C17.5008 11.9403 17.7481 10.864 17.7481 9.7735C17.7481 8.68299 17.5008 7.60668 17.0248 6.62554C16.5488 5.6444 15.8565 4.78398 15 4.109ZM26.378 14.035V14.244H26.436V13.962H26.363L26.279 14.145L26.196 13.962H26.123V14.244H26.164V14.03L26.248 14.213H26.305L26.376 14.036L26.378 14.035ZM24.567 20.26C24.4052 20.26 24.2501 20.1957 24.1357 20.0813C24.0213 19.9669 23.957 19.8118 23.957 19.65C23.957 19.4882 24.0213 19.3331 24.1357 19.2187C24.2501 19.1043 24.4052 19.04 24.567 19.04C24.6458 19.0399 24.7239 19.0558 24.7964 19.0867C24.869 19.1176 24.9345 19.1629 24.989 19.2198C25.0436 19.2767 25.0861 19.3441 25.1139 19.4178C25.1418 19.4916 25.1544 19.5702 25.151 19.649C25.1566 19.7284 25.1455 19.8082 25.1185 19.8831C25.0915 19.958 25.0492 20.0264 24.9942 20.084C24.9393 20.1417 24.8729 20.1871 24.7993 20.2176C24.7257 20.2481 24.6466 20.2619 24.567 20.26ZM20.698 20.26C20.5423 20.2511 20.3958 20.1829 20.2887 20.0695C20.1816 19.9561 20.1219 19.806 20.1219 19.65C20.1219 19.494 20.1816 19.3439 20.2887 19.2305C20.3958 19.1171 20.5423 19.0489 20.698 19.04C20.777 19.0391 20.8554 19.0544 20.9283 19.085C21.0012 19.1156 21.067 19.1608 21.1217 19.218C21.1764 19.2751 21.2187 19.3428 21.2461 19.4169C21.2735 19.4911 21.2854 19.5701 21.281 19.649C21.2877 19.7284 21.2775 19.8083 21.251 19.8835C21.2246 19.9587 21.1826 20.0275 21.1277 20.0853C21.0729 20.1431 21.0064 20.1886 20.9327 20.2189C20.859 20.2492 20.7797 20.2635 20.7 20.261L20.698 20.26ZM8.963 20.26C8.80122 20.26 8.64606 20.1957 8.53166 20.0813C8.41727 19.9669 8.353 19.8118 8.353 19.65C8.353 19.4882 8.41727 19.3331 8.53166 19.2187C8.64606 19.1043 8.80122 19.04 8.963 19.04C9.04078 19.0411 9.11754 19.0579 9.18866 19.0894C9.25978 19.1209 9.32379 19.1665 9.37685 19.2234C9.42991 19.2803 9.47091 19.3473 9.4974 19.4204C9.52389 19.4936 9.53532 19.5713 9.531 19.649C9.53754 19.7273 9.52767 19.8061 9.50203 19.8804C9.47639 19.9547 9.43554 20.0228 9.38208 20.0804C9.32863 20.138 9.26375 20.1838 9.19159 20.2149C9.11943 20.246 9.04158 20.2607 8.963 20.26ZM15.583 19.479H14.588C14.596 19.3541 14.6519 19.2371 14.7442 19.1524C14.8364 19.0678 14.9578 19.0222 15.083 19.025C15.2091 19.0193 15.3323 19.0635 15.426 19.1482C15.5196 19.2328 15.576 19.351 15.583 19.477V19.479Z" fill="black"/>
</svg>
