<svg width="26" height="31" viewBox="0 0 26 31" fill="none" xmlns="http://www.w3.org/2000/svg">
<path d="M10.803 7.07592H19.265C23.808 7.07592 25.519 9.37592 25.254 12.7599C24.818 18.3389 21.445 21.4239 16.971 21.4239H14.713C14.1 21.4239 13.687 21.8289 13.52 22.9309L12.551 29.3309C12.488 29.7459 12.27 29.9899 11.941 30.0199H6.63598C6.13598 30.0199 5.95898 29.6379 6.08998 28.8109L9.32998 8.28992C9.33932 8.11063 9.38587 7.93525 9.46666 7.77493C9.54744 7.61461 9.66071 7.47285 9.79925 7.35867C9.93779 7.24449 10.0986 7.16039 10.2714 7.11171C10.4442 7.06303 10.6252 7.05084 10.803 7.07592Z" fill="#009DE2"/>
<path d="M5.51289 0.0149193H13.9839C16.3689 0.0149193 19.1989 0.0919193 21.0919 1.76192C21.7393 2.36989 22.2366 3.11993 22.5446 3.95291C22.8526 4.78589 22.963 5.67903 22.8669 6.56192C22.3479 13.0299 18.4789 16.6529 13.2899 16.6529H9.11189C8.40089 16.6529 7.92989 17.1239 7.72889 18.3999L6.56289 25.8149C6.48689 26.2959 6.27889 26.5799 5.89789 26.6149H0.679894C0.0988943 26.6149 -0.101106 26.1719 0.0468943 25.2149L3.80389 1.42192C3.81473 1.21397 3.86875 1.01055 3.96251 0.824624C4.05626 0.638693 4.18771 0.474319 4.34847 0.341968C4.50923 0.209616 4.69578 0.112186 4.89626 0.0558793C5.09673 -0.000427321 5.30673 -0.0143766 5.51289 0.0149193Z" fill="#113984"/>
<path d="M7.84985 17.6519L9.32885 8.28992C9.33818 8.11054 9.38475 7.93506 9.4656 7.77466C9.54645 7.61426 9.6598 7.47245 9.79846 7.35826C9.93711 7.24406 10.098 7.15998 10.2709 7.11138C10.4439 7.06277 10.625 7.05069 10.8029 7.07592H19.2649C20.4361 7.03844 21.6018 7.25046 22.6849 7.69792C21.8349 13.4539 18.1119 16.6529 13.2359 16.6529H9.05785C8.50785 16.6529 8.09685 16.9339 7.84985 17.6519Z" fill="#172C70"/>
</svg>
