<svg width="20" height="20" viewBox="0 0 20 20" fill="none" xmlns="http://www.w3.org/2000/svg">
<path d="M16.519 17.334C16.412 17.3342 16.306 17.3132 16.2071 17.2722C16.1083 17.2311 16.0185 17.1709 15.943 17.095L13.183 14.336C12.0412 15.2284 10.6322 15.7106 9.18304 15.705C7.8939 15.705 6.63371 15.3227 5.56184 14.6065C4.48996 13.8903 3.65453 12.8723 3.1612 11.6813C2.66786 10.4903 2.53879 9.17978 2.79028 7.91541C3.04178 6.65104 3.66256 5.48965 4.57412 4.57809C5.48568 3.66653 6.64708 3.04575 7.91144 2.79425C9.17581 2.54275 10.4864 2.67183 11.6774 3.16516C12.8684 3.65849 13.8864 4.49392 14.6026 5.5658C15.3188 6.63768 15.701 7.89787 15.701 9.18701C15.7066 10.6362 15.2244 12.0451 14.332 13.187L17.091 15.947C17.2049 16.061 17.2824 16.2062 17.3138 16.3642C17.3452 16.5222 17.3291 16.686 17.2675 16.8348C17.2058 16.9837 17.1014 17.1109 16.9675 17.2005C16.8336 17.29 16.6761 17.3379 16.515 17.338L16.519 17.334ZM9.18504 4.29701C8.21809 4.29701 7.27285 4.58374 6.46886 5.12095C5.66487 5.65816 5.03823 6.42172 4.6682 7.31507C4.29816 8.20842 4.20134 9.19143 4.38998 10.1398C4.57863 11.0882 5.04426 11.9593 5.728 12.6431C6.41174 13.3268 7.28287 13.7924 8.23125 13.9811C9.17962 14.1697 10.1626 14.0729 11.056 13.7029C11.9493 13.3328 12.7129 12.7062 13.2501 11.9022C13.7873 11.0982 14.074 10.153 14.074 9.18601C14.0727 7.88977 13.5572 6.647 12.6406 5.73043C11.724 4.81385 10.4813 4.29833 9.18504 4.29701Z" fill="black"/>
<mask id="mask0_1_1263" style="mask-type:luminance" maskUnits="userSpaceOnUse" x="2" y="2" width="16" height="16">
<path d="M16.519 17.334C16.412 17.3342 16.306 17.3132 16.2071 17.2722C16.1083 17.2311 16.0185 17.1709 15.943 17.095L13.183 14.336C12.0412 15.2284 10.6322 15.7106 9.18304 15.705C7.8939 15.705 6.63371 15.3227 5.56184 14.6065C4.48996 13.8903 3.65453 12.8723 3.1612 11.6813C2.66786 10.4903 2.53879 9.17978 2.79028 7.91541C3.04178 6.65104 3.66256 5.48965 4.57412 4.57809C5.48568 3.66653 6.64708 3.04575 7.91144 2.79425C9.17581 2.54275 10.4864 2.67183 11.6774 3.16516C12.8684 3.65849 13.8864 4.49392 14.6026 5.5658C15.3188 6.63768 15.701 7.89787 15.701 9.18701C15.7066 10.6362 15.2244 12.0451 14.332 13.187L17.091 15.947C17.2049 16.061 17.2824 16.2062 17.3138 16.3642C17.3452 16.5222 17.3291 16.686 17.2675 16.8348C17.2058 16.9837 17.1014 17.1109 16.9675 17.2005C16.8336 17.29 16.6761 17.3379 16.515 17.338L16.519 17.334ZM9.18504 4.29701C8.21809 4.29701 7.27285 4.58374 6.46886 5.12095C5.66487 5.65816 5.03823 6.42172 4.6682 7.31507C4.29816 8.20842 4.20134 9.19143 4.38998 10.1398C4.57863 11.0882 5.04426 11.9593 5.728 12.6431C6.41174 13.3268 7.28287 13.7924 8.23125 13.9811C9.17962 14.1697 10.1626 14.0729 11.056 13.7029C11.9493 13.3328 12.7129 12.7062 13.2501 11.9022C13.7873 11.0982 14.074 10.153 14.074 9.18601C14.0727 7.88977 13.5572 6.647 12.6406 5.73043C11.724 4.81385 10.4813 4.29833 9.18504 4.29701Z" fill="white"/>
</mask>
<g mask="url(#mask0_1_1263)">
<path d="M20 0H0V20H20V0Z" fill="white"/>
</g>
</svg>
