<svg width="30" height="30" viewBox="0 0 30 30" fill="none" xmlns="http://www.w3.org/2000/svg">
<path d="M19.627 27H10.5C9.85787 26.9811 9.24724 26.7176 8.79308 26.2632C8.33893 25.8089 8.0756 25.1981 8.057 24.556L7.048 8.313H5.719C5.52831 8.313 5.34543 8.23725 5.21059 8.10241C5.07575 7.96757 5 7.78469 5 7.594C5 7.40331 5.07575 7.22043 5.21059 7.08559C5.34543 6.95075 5.52831 6.875 5.719 6.875H10.75V6.12C10.7508 5.55781 10.9745 5.01889 11.3722 4.62146C11.7698 4.22402 12.3088 4.00053 12.871 4H17.255C17.817 4.00079 18.3558 4.2244 18.7532 4.62181C19.1506 5.01922 19.3742 5.55798 19.375 6.12V6.874H24.406C24.5967 6.874 24.7796 6.94975 24.9144 7.08459C25.0492 7.21943 25.125 7.40231 25.125 7.593C25.125 7.78369 25.0492 7.96657 24.9144 8.10141C24.7796 8.23625 24.5967 8.312 24.406 8.312H23.076L22.106 24.555C22.089 25.204 21.8213 25.8211 21.3591 26.277C20.8969 26.7328 20.2761 26.9919 19.627 27ZM18.656 9.749C18.4712 9.74878 18.2935 9.81971 18.1596 9.94707C18.0257 10.0744 17.946 10.2484 17.937 10.433L17.218 23.371C17.2091 23.5613 17.2756 23.7474 17.403 23.889C17.4663 23.9598 17.5432 24.0172 17.629 24.0577C17.7149 24.0983 17.8081 24.1212 17.903 24.125H17.939C18.1235 24.125 18.301 24.0541 18.4348 23.927C18.5686 23.7999 18.6485 23.6263 18.658 23.442L19.375 10.5C19.3845 10.3096 19.318 10.1232 19.1901 9.98178C19.0622 9.84038 18.8834 9.75557 18.693 9.746L18.656 9.749ZM15.063 9.749C14.8725 9.749 14.6898 9.82461 14.5549 9.95924C14.4201 10.0939 14.3443 10.2765 14.344 10.467V23.406C14.3404 23.5026 14.3563 23.599 14.3908 23.6893C14.4253 23.7796 14.4776 23.862 14.5447 23.9317C14.6118 24.0013 14.6922 24.0567 14.7812 24.0945C14.8701 24.1323 14.9658 24.1518 15.0625 24.1518C15.1592 24.1518 15.2549 24.1323 15.3438 24.0945C15.4328 24.0567 15.5132 24.0013 15.5803 23.9317C15.6474 23.862 15.6997 23.7796 15.7342 23.6893C15.7687 23.599 15.7846 23.5026 15.781 23.406V10.468C15.7807 10.2777 15.705 10.0952 15.5704 9.96059C15.4358 9.826 15.2533 9.74926 15.063 9.749ZM11.469 9.749H11.433C11.243 9.75859 11.0646 9.84295 10.9366 9.98365C10.8087 10.1244 10.7416 10.31 10.75 10.5L11.468 23.438C11.4772 23.622 11.5568 23.7955 11.6902 23.9226C11.8236 24.0497 12.0007 24.1207 12.185 24.121H12.223C12.3179 24.1172 12.4111 24.0943 12.497 24.0537C12.5828 24.0132 12.6597 23.9558 12.723 23.885C12.8509 23.7437 12.9174 23.5574 12.908 23.367L12.187 10.433C12.178 10.2486 12.0984 10.0747 11.9648 9.94741C11.8311 9.82008 11.6536 9.74904 11.469 9.749ZM12.869 5.437C12.6879 5.43726 12.5144 5.50931 12.3863 5.63734C12.2583 5.76537 12.1863 5.93894 12.186 6.12V6.874H17.936V6.12C17.9361 6.03027 17.9186 5.9414 17.8843 5.85847C17.85 5.77555 17.7997 5.7002 17.7362 5.63675C17.6728 5.5733 17.5975 5.523 17.5145 5.48872C17.4316 5.45444 17.3427 5.43687 17.253 5.437H12.869Z" fill="#202020"/>
<mask id="mask0_1_1313" style="mask-type:luminance" maskUnits="userSpaceOnUse" x="5" y="4" width="21" height="23">
<path d="M19.627 27H10.5C9.85787 26.9811 9.24724 26.7176 8.79308 26.2632C8.33893 25.8089 8.0756 25.1981 8.057 24.556L7.048 8.313H5.719C5.52831 8.313 5.34543 8.23725 5.21059 8.10241C5.07575 7.96757 5 7.78469 5 7.594C5 7.40331 5.07575 7.22043 5.21059 7.08559C5.34543 6.95075 5.52831 6.875 5.719 6.875H10.75V6.12C10.7508 5.55781 10.9745 5.01889 11.3722 4.62146C11.7698 4.22402 12.3088 4.00053 12.871 4H17.255C17.817 4.00079 18.3558 4.2244 18.7532 4.62181C19.1506 5.01922 19.3742 5.55798 19.375 6.12V6.874H24.406C24.5967 6.874 24.7796 6.94975 24.9144 7.08459C25.0492 7.21943 25.125 7.40231 25.125 7.593C25.125 7.78369 25.0492 7.96657 24.9144 8.10141C24.7796 8.23625 24.5967 8.312 24.406 8.312H23.076L22.106 24.555C22.089 25.204 21.8213 25.8211 21.3591 26.277C20.8969 26.7328 20.2761 26.9919 19.627 27ZM18.656 9.749C18.4712 9.74878 18.2935 9.81971 18.1596 9.94707C18.0257 10.0744 17.946 10.2484 17.937 10.433L17.218 23.371C17.2091 23.5613 17.2756 23.7474 17.403 23.889C17.4663 23.9598 17.5432 24.0172 17.629 24.0577C17.7149 24.0983 17.8081 24.1212 17.903 24.125H17.939C18.1235 24.125 18.301 24.0541 18.4348 23.927C18.5686 23.7999 18.6485 23.6263 18.658 23.442L19.375 10.5C19.3845 10.3096 19.318 10.1232 19.1901 9.98178C19.0622 9.84038 18.8834 9.75557 18.693 9.746L18.656 9.749ZM15.063 9.749C14.8725 9.749 14.6898 9.82461 14.5549 9.95924C14.4201 10.0939 14.3443 10.2765 14.344 10.467V23.406C14.3404 23.5026 14.3563 23.599 14.3908 23.6893C14.4253 23.7796 14.4776 23.862 14.5447 23.9317C14.6118 24.0013 14.6922 24.0567 14.7812 24.0945C14.8701 24.1323 14.9658 24.1518 15.0625 24.1518C15.1592 24.1518 15.2549 24.1323 15.3438 24.0945C15.4328 24.0567 15.5132 24.0013 15.5803 23.9317C15.6474 23.862 15.6997 23.7796 15.7342 23.6893C15.7687 23.599 15.7846 23.5026 15.781 23.406V10.468C15.7807 10.2777 15.705 10.0952 15.5704 9.96059C15.4358 9.826 15.2533 9.74926 15.063 9.749ZM11.469 9.749H11.433C11.243 9.75859 11.0646 9.84295 10.9366 9.98365C10.8087 10.1244 10.7416 10.31 10.75 10.5L11.468 23.438C11.4772 23.622 11.5568 23.7955 11.6902 23.9226C11.8236 24.0497 12.0007 24.1207 12.185 24.121H12.223C12.3179 24.1172 12.4111 24.0943 12.497 24.0537C12.5828 24.0132 12.6597 23.9558 12.723 23.885C12.8509 23.7437 12.9174 23.5574 12.908 23.367L12.187 10.433C12.178 10.2486 12.0984 10.0747 11.9648 9.94741C11.8311 9.82008 11.6536 9.74904 11.469 9.749ZM12.869 5.437C12.6879 5.43726 12.5144 5.50931 12.3863 5.63734C12.2583 5.76537 12.1863 5.93894 12.186 6.12V6.874H17.936V6.12C17.9361 6.03027 17.9186 5.9414 17.8843 5.85847C17.85 5.77555 17.7997 5.7002 17.7362 5.63675C17.6728 5.5733 17.5975 5.523 17.5145 5.48872C17.4316 5.45444 17.3427 5.43687 17.253 5.437H12.869Z" fill="white"/>
</mask>
<g mask="url(#mask0_1_1313)">
<path d="M30 0H0V30H30V0Z" fill="white"/>
</g>
</svg>
