<svg width="30" height="24" viewBox="0 0 30 24" fill="none" xmlns="http://www.w3.org/2000/svg">
<path d="M27.5 23.333H2.5C1.83696 23.333 1.20107 23.0696 0.732233 22.6008C0.263392 22.1319 0 21.496 0 20.833L0 2.5C0 1.83696 0.263392 1.20107 0.732233 0.732233C1.20107 0.263392 1.83696 0 2.5 0L27.5 0C28.163 0 28.7989 0.263392 29.2678 0.732233C29.7366 1.20107 30 1.83696 30 2.5V20.833C30 21.496 29.7366 22.1319 29.2678 22.6008C28.7989 23.0696 28.163 23.333 27.5 23.333ZM14.458 13.459L14.166 15.276C14.9098 15.5647 15.7011 15.7115 16.499 15.709H16.513C18.704 15.709 20.13 14.626 20.145 12.949C20.156 12.027 19.598 11.326 18.39 10.749C17.654 10.378 17.207 10.126 17.207 9.749C17.218 9.401 17.594 9.049 18.407 9.049H18.497C19.0023 9.04743 19.5023 9.15273 19.964 9.358L20.152 9.446L20.438 7.695C19.8397 7.46544 19.2039 7.34913 18.563 7.352C16.494 7.352 15.042 8.452 15.031 10.029C15.016 11.18 16.07 11.835 16.864 12.229C17.658 12.623 17.948 12.884 17.948 13.234C17.937 13.778 17.29 14.026 16.693 14.026C16.0131 14.0448 15.3389 13.8961 14.73 13.593L14.458 13.459ZM22.625 14.381H25.312C25.373 14.664 25.56 15.581 25.562 15.594H27.5L25.813 7.5H24.193C23.9613 7.47011 23.7264 7.52049 23.5273 7.64277C23.3282 7.76504 23.1771 7.95182 23.099 8.172L19.99 15.593H22.19C22.19 15.593 22.251 15.422 22.328 15.209C22.438 14.903 22.581 14.509 22.628 14.38L22.625 14.381ZM12.078 7.5L10.771 15.594H12.859L14.172 7.5H12.078ZM1.7 7.5L1.664 7.662C2.43634 7.85125 3.17732 8.15101 3.864 8.552L5.729 15.584H7.943L11.235 7.5H9.021L6.974 13.021L6.75 11.9L6.021 8.182C5.921 7.735 5.621 7.525 5.073 7.5H1.7ZM24.966 12.725H23.226C23.267 12.616 23.335 12.431 23.407 12.235L23.559 11.822L23.564 11.807L23.574 11.779L23.667 11.527L23.723 11.375V11.369L23.843 11.043L23.978 10.675L24.019 10.564L24.058 10.464C24.058 10.464 24.07 10.426 24.112 10.309L24.143 10.222V10.217L24.333 9.691L24.478 10.386C24.478 10.386 24.478 10.398 24.483 10.414V10.42L24.488 10.448L24.498 10.497C24.715 11.552 24.867 12.297 24.959 12.728L24.966 12.725Z" fill="black"/>
</svg>
