<svg width="30" height="30" viewBox="0 0 30 30" fill="none" xmlns="http://www.w3.org/2000/svg">
<mask id="mask0_1_964" style="mask-type:luminance" maskUnits="userSpaceOnUse" x="0" y="0" width="30" height="30">
<path d="M30 0H0V30H30V0Z" fill="white"/>
</mask>
<g mask="url(#mask0_1_964)">
<path d="M3.00001 15C3.00001 13.765 5.43701 13.648 5.48901 15C5.70001 20.379 9.61901 24.5 15 24.5C16.255 24.5231 17.5019 24.2934 18.6663 23.8244C19.8306 23.3555 20.8887 22.657 21.7774 21.7705C22.6661 20.884 23.3673 19.8277 23.8392 18.6645C24.311 17.5014 24.544 16.2551 24.524 15C24.5452 13.7423 24.3135 12.4932 23.8426 11.3268C23.3718 10.1604 22.6714 9.10051 21.7831 8.20996C20.8948 7.31941 19.8367 6.61639 18.6714 6.14263C17.5062 5.66886 16.2577 5.43401 15 5.452C13.5285 5.41416 12.0679 5.71432 10.7306 6.32941C9.39332 6.9445 8.2149 7.85812 7.28601 9L9.00001 10.718C9.06971 10.7879 9.11716 10.8769 9.13636 10.9738C9.15556 11.0706 9.14566 11.171 9.10791 11.2622C9.07015 11.3534 9.00624 11.4314 8.92422 11.4864C8.84219 11.5413 8.74574 11.5708 8.64701 11.571H3.20001C3.14697 11.571 3.0961 11.5499 3.05859 11.5124C3.02108 11.4749 3.00001 11.424 3.00001 11.371V5.921C3.00003 5.82219 3.02933 5.72559 3.08421 5.64342C3.13909 5.56124 3.21709 5.49717 3.30836 5.4593C3.39962 5.42142 3.50007 5.41144 3.59701 5.4306C3.69394 5.44977 3.78303 5.49724 3.85301 5.567L5.72601 7.44C7.51724 5.26398 10.0194 3.79045 12.7911 3.27936C15.5628 2.76826 18.426 3.25243 20.8755 4.64647C23.325 6.0405 25.2036 8.25482 26.1797 10.8988C27.1559 13.5428 27.1669 16.4466 26.2109 19.0979C25.2548 21.7493 23.3932 23.9778 20.9543 25.3904C18.5154 26.803 15.656 27.3089 12.8805 26.8189C10.105 26.3289 7.59173 24.8744 5.78402 22.7121C3.97631 20.5497 2.99033 17.8184 3.00001 15ZM11 18C10.7332 17.9961 10.4788 17.8872 10.2916 17.6971C10.1045 17.507 9.99972 17.2508 10 16.984C9.99861 16.8541 10.0238 16.7253 10.0741 16.6056C10.1244 16.4858 10.1987 16.3776 10.2924 16.2877C10.3861 16.1977 10.4972 16.1279 10.6189 16.0826C10.7406 16.0372 10.8703 16.0173 11 16.024H15.04L15 10C15 9.455 15 9 16 9C17 9 17 9.448 17 10V16.026C16.9581 16.5439 16.7301 17.0291 16.3583 17.3919C15.9864 17.7548 15.4958 17.9708 14.977 18H11Z" fill="black"/>
<mask id="mask1_1_964" style="mask-type:luminance" maskUnits="userSpaceOnUse" x="3" y="3" width="24" height="25">
<path d="M3.00001 15C3.00001 13.765 5.43701 13.648 5.48901 15C5.70001 20.379 9.61901 24.5 15 24.5C16.255 24.5231 17.5019 24.2934 18.6663 23.8244C19.8306 23.3555 20.8887 22.657 21.7774 21.7705C22.6661 20.884 23.3673 19.8277 23.8392 18.6645C24.311 17.5014 24.544 16.2551 24.524 15C24.5452 13.7423 24.3135 12.4932 23.8426 11.3268C23.3718 10.1604 22.6714 9.10051 21.7831 8.20996C20.8948 7.31941 19.8367 6.61639 18.6714 6.14263C17.5062 5.66886 16.2577 5.43401 15 5.452C13.5285 5.41416 12.0679 5.71432 10.7306 6.32941C9.39332 6.9445 8.2149 7.85812 7.28601 9L9.00001 10.718C9.06971 10.7879 9.11716 10.8769 9.13636 10.9738C9.15556 11.0706 9.14566 11.171 9.10791 11.2622C9.07015 11.3534 9.00624 11.4314 8.92422 11.4864C8.84219 11.5413 8.74574 11.5708 8.64701 11.571H3.20001C3.14697 11.571 3.0961 11.5499 3.05859 11.5124C3.02108 11.4749 3.00001 11.424 3.00001 11.371V5.921C3.00003 5.82219 3.02933 5.72559 3.08421 5.64342C3.13909 5.56124 3.21709 5.49717 3.30836 5.4593C3.39962 5.42142 3.50007 5.41144 3.59701 5.4306C3.69394 5.44977 3.78303 5.49724 3.85301 5.567L5.72601 7.44C7.51724 5.26398 10.0194 3.79045 12.7911 3.27936C15.5628 2.76826 18.426 3.25243 20.8755 4.64647C23.325 6.0405 25.2036 8.25482 26.1797 10.8988C27.1559 13.5428 27.1669 16.4466 26.2109 19.0979C25.2548 21.7493 23.3932 23.9778 20.9543 25.3904C18.5154 26.803 15.656 27.3089 12.8805 26.8189C10.105 26.3289 7.59173 24.8744 5.78402 22.7121C3.97631 20.5497 2.99033 17.8184 3.00001 15ZM11 18C10.7332 17.9961 10.4788 17.8872 10.2916 17.6971C10.1045 17.507 9.99972 17.2508 10 16.984C9.99861 16.8541 10.0238 16.7253 10.0741 16.6056C10.1244 16.4858 10.1987 16.3776 10.2924 16.2877C10.3861 16.1977 10.4972 16.1279 10.6189 16.0826C10.7406 16.0372 10.8703 16.0173 11 16.024H15.04L15 10C15 9.455 15 9 16 9C17 9 17 9.448 17 10V16.026C16.9581 16.5439 16.7301 17.0291 16.3583 17.3919C15.9864 17.7548 15.4958 17.9708 14.977 18H11Z" fill="white"/>
</mask>
<g mask="url(#mask1_1_964)">
<path d="M30 0H0V30H30V0Z" fill="#C1C0C9"/>
</g>
</g>
</svg>
