<svg width="30" height="30" viewBox="0 0 30 30" fill="none" xmlns="http://www.w3.org/2000/svg">
<mask id="mask0_1_977" style="mask-type:luminance" maskUnits="userSpaceOnUse" x="0" y="0" width="30" height="30">
<path d="M30 0H0V30H30V0Z" fill="white"/>
</mask>
<g mask="url(#mask0_1_977)">
<path d="M20.77 27H9.77C9.44169 27 9.1166 26.9353 8.81329 26.8097C8.50997 26.6841 8.23438 26.4999 8.00223 26.2678C7.77008 26.0356 7.58593 25.76 7.4603 25.4567C7.33466 25.1534 7.27 24.8283 7.27 24.5V14.419H6.494C6.19569 14.4176 5.90458 14.3273 5.65785 14.1596C5.41113 13.992 5.22 13.7545 5.1089 13.4777C4.99779 13.2009 4.97176 12.8972 5.03412 12.6054C5.09648 12.3137 5.24441 12.0472 5.459 11.84L14.23 3.41901C14.5095 3.15013 14.8822 2.99994 15.27 2.99994C15.6578 2.99994 16.0305 3.15013 16.31 3.41901L25.08 11.84C25.2949 12.0475 25.4429 12.3145 25.5051 12.6067C25.5673 12.8989 25.5409 13.203 25.4291 13.48C25.3174 13.7571 25.1255 13.9944 24.878 14.1617C24.6305 14.329 24.3387 14.4186 24.04 14.419H23.27V24.5C23.27 24.8283 23.2053 25.1534 23.0797 25.4567C22.9541 25.76 22.7699 26.0356 22.5378 26.2678C22.3056 26.4999 22.03 26.6841 21.7267 26.8097C21.4234 26.9353 21.0983 27 20.77 27ZM15.27 16.5C14.8744 16.5 14.4878 16.6173 14.1589 16.8371C13.83 17.0568 13.5736 17.3692 13.4222 17.7346C13.2709 18.1001 13.2313 18.5022 13.3084 18.8902C13.3856 19.2782 13.5761 19.6345 13.8558 19.9142C14.1355 20.1939 14.4919 20.3844 14.8798 20.4616C15.2678 20.5388 15.6699 20.4991 16.0354 20.3478C16.4008 20.1964 16.7132 19.9401 16.9329 19.6112C17.1527 19.2823 17.27 18.8956 17.27 18.5C17.27 17.9696 17.0593 17.4609 16.6842 17.0858C16.3091 16.7107 15.8004 16.5 15.27 16.5Z" fill="#D3D4ED"/>
<mask id="mask1_1_977" style="mask-type:luminance" maskUnits="userSpaceOnUse" x="5" y="3" width="21" height="24">
<path d="M20.77 27H9.77C9.44169 27 9.1166 26.9353 8.81329 26.8097C8.50997 26.6841 8.23438 26.4999 8.00223 26.2678C7.77008 26.0356 7.58593 25.76 7.4603 25.4567C7.33466 25.1534 7.27 24.8283 7.27 24.5V14.419H6.494C6.19569 14.4176 5.90458 14.3273 5.65785 14.1596C5.41113 13.992 5.22 13.7545 5.1089 13.4777C4.99779 13.2009 4.97176 12.8972 5.03412 12.6054C5.09648 12.3137 5.24441 12.0472 5.459 11.84L14.23 3.41901C14.5095 3.15013 14.8822 2.99994 15.27 2.99994C15.6578 2.99994 16.0305 3.15013 16.31 3.41901L25.08 11.84C25.2949 12.0475 25.4429 12.3145 25.5051 12.6067C25.5673 12.8989 25.5409 13.203 25.4291 13.48C25.3174 13.7571 25.1255 13.9944 24.878 14.1617C24.6305 14.329 24.3387 14.4186 24.04 14.419H23.27V24.5C23.27 24.8283 23.2053 25.1534 23.0797 25.4567C22.9541 25.76 22.7699 26.0356 22.5378 26.2678C22.3056 26.4999 22.03 26.6841 21.7267 26.8097C21.4234 26.9353 21.0983 27 20.77 27ZM15.27 16.5C14.8744 16.5 14.4878 16.6173 14.1589 16.8371C13.83 17.0568 13.5736 17.3692 13.4222 17.7346C13.2709 18.1001 13.2313 18.5022 13.3084 18.8902C13.3856 19.2782 13.5761 19.6345 13.8558 19.9142C14.1355 20.1939 14.4919 20.3844 14.8798 20.4616C15.2678 20.5388 15.6699 20.4991 16.0354 20.3478C16.4008 20.1964 16.7132 19.9401 16.9329 19.6112C17.1527 19.2823 17.27 18.8956 17.27 18.5C17.27 17.9696 17.0593 17.4609 16.6842 17.0858C16.3091 16.7107 15.8004 16.5 15.27 16.5Z" fill="white"/>
</mask>
<g mask="url(#mask1_1_977)">
<path d="M30 0H0V30H30V0Z" fill="#C1C0C9"/>
</g>
</g>
</svg>
