<svg width="30" height="30" viewBox="0 0 30 30" fill="none" xmlns="http://www.w3.org/2000/svg">
<path opacity="0.3" d="M3.99999 14.725C3.99999 14.9902 4.10535 15.2446 4.29289 15.4321C4.48042 15.6196 4.73478 15.725 4.99999 15.725L16.65 15.725L14.289 17.98C14.1632 18.0978 14.063 18.2401 13.9944 18.3982C13.9259 18.5562 13.8905 18.7267 13.8905 18.899C13.8905 19.0713 13.9259 19.2418 13.9944 19.3998C14.063 19.5579 14.1632 19.7002 14.289 19.818C14.5498 20.0626 14.8939 20.1987 15.2515 20.1987C15.609 20.1987 15.9532 20.0626 16.214 19.818L20.296 15.918C20.4188 15.8028 20.5173 15.6642 20.5856 15.5103C20.654 15.3564 20.6908 15.1903 20.6938 15.022C20.6969 14.8536 20.6662 14.6863 20.6035 14.53C20.5409 14.3737 20.4475 14.2316 20.329 14.112C20.3258 13.8489 20.2191 13.5976 20.0319 13.4126C19.8447 13.2277 19.5921 13.124 19.329 13.124H19.3L16.217 10.179C15.9562 9.93441 15.612 9.79828 15.2545 9.79828C14.8969 9.79828 14.5528 9.93441 14.292 10.179C14.1662 10.2969 14.0659 10.4393 13.9974 10.5974C13.9288 10.7556 13.8935 10.9261 13.8935 11.0985C13.8935 11.2709 13.9288 11.4414 13.9974 11.5996C14.0659 11.7577 14.1662 11.9001 14.292 12.018L15.45 13.124L4.99999 13.124C4.73478 13.124 4.48042 13.2294 4.29289 13.4169C4.10535 13.6044 3.99999 13.8588 3.99999 14.124V14.725ZM6.99999 8.5C6.99316 8.66692 7.01988 8.83352 7.07858 8.98993C7.13728 9.14634 7.22676 9.28939 7.34173 9.4106C7.4567 9.53182 7.59481 9.62874 7.7479 9.69562C7.90099 9.76251 8.06594 9.798 8.23299 9.8C8.57587 9.7971 8.90371 9.65885 9.14513 9.41537C9.38655 9.17189 9.52201 8.84288 9.52199 8.5V7.2C9.49017 6.51323 9.73164 5.84181 10.1936 5.33263C10.6556 4.82345 11.3004 4.51796 11.987 4.483L20 4.532C20.69 4.55112 21.3444 4.84238 21.8205 5.34222C22.2965 5.84206 22.5555 6.5099 22.541 7.2V22.8C22.5557 23.4932 22.2977 24.1645 21.8225 24.6695C21.3473 25.1744 20.6928 25.4726 20 25.5H11.988C11.3 25.4691 10.6518 25.1684 10.1839 24.663C9.71603 24.1577 9.466 23.4884 9.48799 22.8V21.5C9.49414 21.3327 9.46672 21.1658 9.40734 21.0092C9.34796 20.8527 9.25782 20.7096 9.14224 20.5884C9.02667 20.4672 8.888 20.3704 8.73441 20.3037C8.58083 20.237 8.41543 20.2018 8.24799 20.2C8.07996 20.201 7.91383 20.2356 7.75944 20.302C7.60504 20.3683 7.46553 20.4649 7.34916 20.5862C7.23279 20.7074 7.14193 20.8507 7.08195 21.0077C7.02197 21.1647 6.9941 21.3321 6.99999 21.5V22.8C6.97837 23.4712 7.09115 24.1399 7.33169 24.7668C7.57223 25.3938 7.93569 25.9663 8.40068 26.4508C8.86568 26.9353 9.42284 27.3219 10.0394 27.5879C10.656 27.854 11.3195 27.9941 11.991 28H20C20.6719 27.9942 21.3359 27.8542 21.953 27.5883C22.5701 27.3225 23.1279 26.936 23.5937 26.4516C24.0594 25.9672 24.4237 25.3947 24.6652 24.7677C24.9067 24.1406 25.0205 23.4716 25 22.8V7.2C25.0058 5.82688 24.466 4.50766 23.4993 3.5325C22.5326 2.55733 21.2181 2.00609 19.845 2L11.992 2C11.3204 2.00578 10.6568 2.14578 10.0401 2.41177C9.42341 2.67775 8.86614 3.06435 8.40103 3.54884C7.93593 4.03332 7.57239 4.60591 7.33179 5.23293C7.09118 5.85995 6.97837 6.52875 6.99999 7.2V8.5Z" fill="black"/>
<mask id="mask0_1_954" style="mask-type:luminance" maskUnits="userSpaceOnUse" x="4" y="2" width="22" height="26">
<path d="M3.99999 14.725C3.99999 14.9902 4.10535 15.2446 4.29289 15.4321C4.48042 15.6196 4.73478 15.725 4.99999 15.725L16.65 15.725L14.289 17.98C14.1632 18.0978 14.063 18.2401 13.9944 18.3982C13.9259 18.5562 13.8905 18.7267 13.8905 18.899C13.8905 19.0713 13.9259 19.2418 13.9944 19.3998C14.063 19.5579 14.1632 19.7002 14.289 19.818C14.5498 20.0626 14.8939 20.1987 15.2515 20.1987C15.609 20.1987 15.9532 20.0626 16.214 19.818L20.296 15.918C20.4188 15.8028 20.5173 15.6642 20.5856 15.5103C20.654 15.3564 20.6908 15.1903 20.6938 15.022C20.6969 14.8536 20.6662 14.6863 20.6035 14.53C20.5409 14.3737 20.4475 14.2316 20.329 14.112C20.3258 13.8489 20.2191 13.5976 20.0319 13.4126C19.8447 13.2277 19.5921 13.124 19.329 13.124H19.3L16.217 10.179C15.9562 9.93441 15.612 9.79828 15.2545 9.79828C14.8969 9.79828 14.5528 9.93441 14.292 10.179C14.1662 10.2969 14.0659 10.4393 13.9974 10.5974C13.9288 10.7556 13.8935 10.9261 13.8935 11.0985C13.8935 11.2709 13.9288 11.4414 13.9974 11.5996C14.0659 11.7577 14.1662 11.9001 14.292 12.018L15.45 13.124L4.99999 13.124C4.73478 13.124 4.48042 13.2294 4.29289 13.4169C4.10535 13.6044 3.99999 13.8588 3.99999 14.124V14.725ZM6.99999 8.5C6.99316 8.66692 7.01988 8.83352 7.07858 8.98993C7.13728 9.14634 7.22676 9.28939 7.34173 9.4106C7.4567 9.53182 7.59481 9.62874 7.7479 9.69562C7.90099 9.76251 8.06594 9.798 8.23299 9.8C8.57587 9.7971 8.90371 9.65885 9.14513 9.41537C9.38655 9.17189 9.52201 8.84288 9.52199 8.5V7.2C9.49017 6.51323 9.73164 5.84181 10.1936 5.33263C10.6556 4.82345 11.3004 4.51796 11.987 4.483L20 4.532C20.69 4.55112 21.3444 4.84238 21.8205 5.34222C22.2965 5.84206 22.5555 6.5099 22.541 7.2V22.8C22.5557 23.4932 22.2977 24.1645 21.8225 24.6695C21.3473 25.1744 20.6928 25.4726 20 25.5H11.988C11.3 25.4691 10.6518 25.1684 10.1839 24.663C9.71603 24.1577 9.466 23.4884 9.48799 22.8V21.5C9.49414 21.3327 9.46672 21.1658 9.40734 21.0092C9.34796 20.8527 9.25782 20.7096 9.14224 20.5884C9.02667 20.4672 8.888 20.3704 8.73441 20.3037C8.58083 20.237 8.41543 20.2018 8.24799 20.2C8.07996 20.201 7.91383 20.2356 7.75944 20.302C7.60504 20.3683 7.46553 20.4649 7.34916 20.5862C7.23279 20.7074 7.14193 20.8507 7.08195 21.0077C7.02197 21.1647 6.9941 21.3321 6.99999 21.5V22.8C6.97837 23.4712 7.09115 24.1399 7.33169 24.7668C7.57223 25.3938 7.93569 25.9663 8.40068 26.4508C8.86568 26.9353 9.42284 27.3219 10.0394 27.5879C10.656 27.854 11.3195 27.9941 11.991 28H20C20.6719 27.9942 21.3359 27.8542 21.953 27.5883C22.5701 27.3225 23.1279 26.936 23.5937 26.4516C24.0594 25.9672 24.4237 25.3947 24.6652 24.7677C24.9067 24.1406 25.0205 23.4716 25 22.8V7.2C25.0058 5.82688 24.466 4.50766 23.4993 3.5325C22.5326 2.55733 21.2181 2.00609 19.845 2L11.992 2C11.3204 2.00578 10.6568 2.14578 10.0401 2.41177C9.42341 2.67775 8.86614 3.06435 8.40103 3.54884C7.93593 4.03332 7.57239 4.60591 7.33179 5.23293C7.09118 5.85995 6.97837 6.52875 6.99999 7.2V8.5Z" fill="white"/>
</mask>
<g mask="url(#mask0_1_954)">
<path d="M30 0H0V30H30V0Z" fill="#C1C0C9"/>
</g>
</svg>
