<svg width="30" height="30" viewBox="0 0 30 30" fill="none" xmlns="http://www.w3.org/2000/svg">
<mask id="mask0_1_925" style="mask-type:luminance" maskUnits="userSpaceOnUse" x="0" y="0" width="30" height="30">
<path d="M30 0H0V30H30V0Z" fill="white"/>
</mask>
<g mask="url(#mask0_1_925)">
<path d="M14.985 27.639C13.144 27.639 12 26.628 12 25H17.97C17.97 26.628 16.826 27.639 14.985 27.639ZM26 24H4V23L7 20V13C6.80192 11.133 7.33369 9.26179 8.484 7.778C9.59863 6.33053 11.2054 5.34212 13 5V4C13 3.46957 13.2107 2.96086 13.5858 2.58579C13.9609 2.21071 14.4696 2 15 2C15.5304 2 16.0391 2.21071 16.4142 2.58579C16.7893 2.96086 17 3.46957 17 4V5C18.7945 5.3423 20.4012 6.33067 21.516 7.778C22.6666 9.26165 23.1984 11.133 23 13V20L26 23V24Z" fill="black"/>
<mask id="mask1_1_925" style="mask-type:luminance" maskUnits="userSpaceOnUse" x="4" y="2" width="22" height="26">
<path d="M14.985 27.639C13.144 27.639 12 26.628 12 25H17.97C17.97 26.628 16.826 27.639 14.985 27.639ZM26 24H4V23L7 20V13C6.80192 11.133 7.33369 9.26179 8.484 7.778C9.59863 6.33053 11.2054 5.34212 13 5V4C13 3.46957 13.2107 2.96086 13.5858 2.58579C13.9609 2.21071 14.4696 2 15 2C15.5304 2 16.0391 2.21071 16.4142 2.58579C16.7893 2.96086 17 3.46957 17 4V5C18.7945 5.3423 20.4012 6.33067 21.516 7.778C22.6666 9.26165 23.1984 11.133 23 13V20L26 23V24Z" fill="white"/>
</mask>
<g mask="url(#mask1_1_925)">
<path d="M30 0H0V30H30V0Z" fill="#C1C0C9"/>
</g>
</g>
</svg>
