<svg width="30" height="30" viewBox="0 0 30 30" fill="none" xmlns="http://www.w3.org/2000/svg">
<mask id="mask0_1_938" style="mask-type:luminance" maskUnits="userSpaceOnUse" x="0" y="0" width="30" height="30">
<path d="M30 0H0V30H30V0Z" fill="white"/>
</mask>
<g mask="url(#mask0_1_938)">
<path d="M15.921 27H14.069C13.7928 26.9964 13.5259 26.8997 13.3115 26.7254C13.0971 26.5512 12.9479 26.3097 12.888 26.04L12.6 24.485C12.5298 24.2226 12.4011 23.9796 12.2234 23.7742C12.0457 23.5689 11.8237 23.4065 11.5742 23.2993C11.3246 23.1922 11.054 23.143 10.7827 23.1556C10.5114 23.1682 10.2465 23.2422 10.008 23.372L8.76 24.265C8.52167 24.4324 8.23166 24.5098 7.94159 24.4835C7.65153 24.4571 7.38023 24.3287 7.176 24.121L5.876 22.834C5.66455 22.6301 5.53361 22.3569 5.50716 22.0643C5.48072 21.7718 5.56054 21.4795 5.732 21.241L6.625 20.069C6.76899 19.8278 6.85454 19.5563 6.87481 19.2761C6.89507 18.996 6.8495 18.715 6.74172 18.4556C6.63394 18.1962 6.46695 17.9657 6.25412 17.7824C6.04128 17.5991 5.7885 17.4681 5.516 17.4L3.96 17.112C3.68842 17.0522 3.44532 16.9016 3.27081 16.6851C3.09629 16.4686 3.00077 16.1991 3 15.921V14.069C3.00321 13.7927 3.09982 13.5256 3.27413 13.3112C3.44843 13.0967 3.69016 12.9476 3.96 12.888L5.516 12.6C5.77781 12.529 6.02018 12.3997 6.22501 12.2219C6.42984 12.0441 6.59182 11.8222 6.69885 11.573C6.80588 11.3237 6.85519 11.0535 6.8431 10.7825C6.831 10.5115 6.75781 10.2467 6.629 10.008L5.736 8.76C5.56446 8.52134 5.48461 8.22889 5.51105 7.93617C5.5375 7.64346 5.66847 7.37005 5.88 7.166L7.18 5.88C7.38379 5.67301 7.65435 5.54495 7.94362 5.51859C8.2329 5.49223 8.52215 5.56926 8.76 5.736L9.97 6.629C10.2101 6.76517 10.4784 6.84428 10.754 6.86022C11.0296 6.87615 11.3052 6.82848 11.5594 6.72089C11.8136 6.6133 12.0397 6.44867 12.2201 6.23975C12.4006 6.03082 12.5306 5.78319 12.6 5.516L12.888 3.96C12.9476 3.6885 13.098 3.44543 13.3143 3.2709C13.5307 3.09637 13.8 3.00082 14.078 3H15.931C16.2073 3.00339 16.4743 3.10007 16.6887 3.27434C16.9031 3.44861 17.0523 3.69025 17.112 3.96L17.4 5.516C17.4664 5.77982 17.588 6.02656 17.7568 6.23995C17.9255 6.45334 18.1376 6.62854 18.379 6.754C18.6399 6.85627 18.9205 6.89815 19.1998 6.8765C19.4792 6.85485 19.75 6.77024 19.992 6.629L21.24 5.736C21.4782 5.56818 21.7683 5.49052 22.0585 5.5169C22.3486 5.54328 22.62 5.67198 22.824 5.88L24.124 7.166C24.3355 7.37005 24.4665 7.64346 24.4929 7.93617C24.5194 8.22889 24.4395 8.52134 24.268 8.76L23.375 9.931C23.231 10.1722 23.1455 10.4438 23.1253 10.724C23.1051 11.0043 23.1508 11.2853 23.2586 11.5447C23.3665 11.8041 23.5336 12.0347 23.7466 12.2179C23.9595 12.4012 24.2124 12.532 24.485 12.6L26.04 12.888C26.3113 12.9479 26.5542 13.0984 26.7287 13.3147C26.9031 13.5309 26.9988 13.8001 27 14.078V15.931C26.9964 16.2072 26.8997 16.4741 26.7254 16.6885C26.5512 16.9029 26.3097 17.0521 26.04 17.112L24.485 17.4C24.2226 17.4702 23.9796 17.5989 23.7742 17.7766C23.5689 17.9543 23.4065 18.1763 23.2993 18.4258C23.1922 18.6754 23.143 18.946 23.1556 19.2173C23.1682 19.4886 23.2422 19.7535 23.372 19.992L24.265 21.24C24.4365 21.4785 24.5163 21.7708 24.4898 22.0633C24.4634 22.3559 24.3325 22.6291 24.121 22.833L22.821 24.12C22.6217 24.3084 22.3653 24.425 22.0923 24.451C21.8192 24.4771 21.5453 24.4113 21.314 24.264L20.066 23.371C19.8246 23.2276 19.553 23.1428 19.2729 23.1231C18.9928 23.1035 18.712 23.1496 18.453 23.2579C18.1939 23.3661 17.9638 23.5335 17.7809 23.7465C17.5981 23.9596 17.4676 24.2125 17.4 24.485L17.1 26.04C17.0402 26.3093 16.8912 26.5506 16.6773 26.7248C16.4633 26.899 16.1969 26.996 15.921 27ZM15 10.68C14.1456 10.68 13.3104 10.9334 12.5999 11.4081C11.8895 11.8827 11.3358 12.5574 11.0088 13.3468C10.6819 14.1362 10.5963 15.0048 10.763 15.8428C10.9297 16.6808 11.3411 17.4505 11.9453 18.0547C12.5495 18.6589 13.3192 19.0703 14.1572 19.237C14.9952 19.4037 15.8638 19.3181 16.6532 18.9912C17.4426 18.6642 18.1173 18.1105 18.5919 17.4001C19.0666 16.6896 19.32 15.8544 19.32 15C19.3187 13.8547 18.8631 12.7566 18.0532 11.9468C17.2434 11.1369 16.1453 10.6813 15 10.68Z" fill="#0E1D25"/>
<mask id="mask1_1_938" style="mask-type:luminance" maskUnits="userSpaceOnUse" x="3" y="3" width="24" height="24">
<path d="M15.921 27H14.069C13.7928 26.9964 13.5259 26.8997 13.3115 26.7254C13.0971 26.5512 12.9479 26.3097 12.888 26.04L12.6 24.485C12.5298 24.2226 12.4011 23.9796 12.2234 23.7742C12.0457 23.5689 11.8237 23.4065 11.5742 23.2993C11.3246 23.1922 11.054 23.143 10.7827 23.1556C10.5114 23.1682 10.2465 23.2422 10.008 23.372L8.76 24.265C8.52167 24.4324 8.23166 24.5098 7.94159 24.4835C7.65153 24.4571 7.38023 24.3287 7.176 24.121L5.876 22.834C5.66455 22.6301 5.53361 22.3569 5.50716 22.0643C5.48072 21.7718 5.56054 21.4795 5.732 21.241L6.625 20.069C6.76899 19.8278 6.85454 19.5563 6.87481 19.2761C6.89507 18.996 6.8495 18.715 6.74172 18.4556C6.63394 18.1962 6.46695 17.9657 6.25412 17.7824C6.04128 17.5991 5.7885 17.4681 5.516 17.4L3.96 17.112C3.68842 17.0522 3.44532 16.9016 3.27081 16.6851C3.09629 16.4686 3.00077 16.1991 3 15.921V14.069C3.00321 13.7927 3.09982 13.5256 3.27413 13.3112C3.44843 13.0967 3.69016 12.9476 3.96 12.888L5.516 12.6C5.77781 12.529 6.02018 12.3997 6.22501 12.2219C6.42984 12.0441 6.59182 11.8222 6.69885 11.573C6.80588 11.3237 6.85519 11.0535 6.8431 10.7825C6.831 10.5115 6.75781 10.2467 6.629 10.008L5.736 8.76C5.56446 8.52134 5.48461 8.22889 5.51105 7.93617C5.5375 7.64346 5.66847 7.37005 5.88 7.166L7.18 5.88C7.38379 5.67301 7.65435 5.54495 7.94362 5.51859C8.2329 5.49223 8.52215 5.56926 8.76 5.736L9.97 6.629C10.2101 6.76517 10.4784 6.84428 10.754 6.86022C11.0296 6.87615 11.3052 6.82848 11.5594 6.72089C11.8136 6.6133 12.0397 6.44867 12.2201 6.23975C12.4006 6.03082 12.5306 5.78319 12.6 5.516L12.888 3.96C12.9476 3.6885 13.098 3.44543 13.3143 3.2709C13.5307 3.09637 13.8 3.00082 14.078 3H15.931C16.2073 3.00339 16.4743 3.10007 16.6887 3.27434C16.9031 3.44861 17.0523 3.69025 17.112 3.96L17.4 5.516C17.4664 5.77982 17.588 6.02656 17.7568 6.23995C17.9255 6.45334 18.1376 6.62854 18.379 6.754C18.6399 6.85627 18.9205 6.89815 19.1998 6.8765C19.4792 6.85485 19.75 6.77024 19.992 6.629L21.24 5.736C21.4782 5.56818 21.7683 5.49052 22.0585 5.5169C22.3486 5.54328 22.62 5.67198 22.824 5.88L24.124 7.166C24.3355 7.37005 24.4665 7.64346 24.4929 7.93617C24.5194 8.22889 24.4395 8.52134 24.268 8.76L23.375 9.931C23.231 10.1722 23.1455 10.4438 23.1253 10.724C23.1051 11.0043 23.1508 11.2853 23.2586 11.5447C23.3665 11.8041 23.5336 12.0347 23.7466 12.2179C23.9595 12.4012 24.2124 12.532 24.485 12.6L26.04 12.888C26.3113 12.9479 26.5542 13.0984 26.7287 13.3147C26.9031 13.5309 26.9988 13.8001 27 14.078V15.931C26.9964 16.2072 26.8997 16.4741 26.7254 16.6885C26.5512 16.9029 26.3097 17.0521 26.04 17.112L24.485 17.4C24.2226 17.4702 23.9796 17.5989 23.7742 17.7766C23.5689 17.9543 23.4065 18.1763 23.2993 18.4258C23.1922 18.6754 23.143 18.946 23.1556 19.2173C23.1682 19.4886 23.2422 19.7535 23.372 19.992L24.265 21.24C24.4365 21.4785 24.5163 21.7708 24.4898 22.0633C24.4634 22.3559 24.3325 22.6291 24.121 22.833L22.821 24.12C22.6217 24.3084 22.3653 24.425 22.0923 24.451C21.8192 24.4771 21.5453 24.4113 21.314 24.264L20.066 23.371C19.8246 23.2276 19.553 23.1428 19.2729 23.1231C18.9928 23.1035 18.712 23.1496 18.453 23.2579C18.1939 23.3661 17.9638 23.5335 17.7809 23.7465C17.5981 23.9596 17.4676 24.2125 17.4 24.485L17.1 26.04C17.0402 26.3093 16.8912 26.5506 16.6773 26.7248C16.4633 26.899 16.1969 26.996 15.921 27ZM15 10.68C14.1456 10.68 13.3104 10.9334 12.5999 11.4081C11.8895 11.8827 11.3358 12.5574 11.0088 13.3468C10.6819 14.1362 10.5963 15.0048 10.763 15.8428C10.9297 16.6808 11.3411 17.4505 11.9453 18.0547C12.5495 18.6589 13.3192 19.0703 14.1572 19.237C14.9952 19.4037 15.8638 19.3181 16.6532 18.9912C17.4426 18.6642 18.1173 18.1105 18.5919 17.4001C19.0666 16.6896 19.32 15.8544 19.32 15C19.3187 13.8547 18.8631 12.7566 18.0532 11.9468C17.2434 11.1369 16.1453 10.6813 15 10.68Z" fill="white"/>
</mask>
<g mask="url(#mask1_1_938)">
<path d="M30 0H0V30H30V0Z" fill="#C1C0C9"/>
</g>
</g>
</svg>
