<svg width="47" height="56" viewBox="0 0 47 56" fill="none" xmlns="http://www.w3.org/2000/svg">
<path d="M30.167 43.667H15.5C13.567 43.667 12 45.234 12 47.167V48.5C12 50.433 13.567 52 15.5 52H30.167C32.1 52 33.667 50.433 33.667 48.5V47.167C33.667 45.234 32.1 43.667 30.167 43.667Z" fill="#B3B3B3" fill-opacity="0.8"/>
<g filter="url(#filter0_d_1_478)">
<path d="M23.0196 44.6667C22.5135 44.6667 21.8151 44.4469 20.1459 42.8529C19.2002 41.9498 18.0111 40.6699 16.7072 39.1516C14.3157 36.3669 11.8107 33.096 10.7509 31.3739C7.89 26.7255 6 23.6546 6 18.0196C6 15.7224 6.45013 13.4934 7.3379 11.3945C8.19516 9.36771 9.4222 7.54766 10.9849 5.98493C12.5477 4.4222 14.3677 3.19516 16.3945 2.3379C18.4934 1.45013 20.7224 1 23.0196 1C25.3168 1 27.5458 1.45013 29.6447 2.3379C31.6715 3.19516 33.4916 4.4222 35.0543 5.98493C36.617 7.54766 37.8441 9.36771 38.7014 11.3945C39.5891 13.4934 40.0392 15.7224 40.0392 18.0196C40.0392 23.4394 38.1704 26.4695 35.3416 31.056L35.1453 31.3745C34.1289 33.0235 31.6224 36.3293 29.3149 39.0642C28.014 40.6062 26.832 41.9033 25.8968 42.8154C24.3213 44.3518 23.6071 44.6667 23.0196 44.6667Z" fill="#2563EB"/>
<path d="M23.0196 43.6667C24.645 43.6667 32.3854 33.9462 34.294 30.8498C37.2279 26.09 39.0392 23.2742 39.0392 18.0196C39.0392 9.17223 31.867 2 23.0196 2C14.1722 2 7 9.17223 7 18.0196C7 23.3015 8.67841 26.0986 11.6025 30.8498C13.6406 34.1613 21.3942 43.6667 23.0196 43.6667ZM23.0196 45.6667C22.0171 45.6667 21.0511 45.1001 19.4553 43.5761C18.4862 42.6506 17.2736 41.346 15.9485 39.8031C13.5272 36.9837 10.9831 33.6591 9.89924 31.8981C8.46039 29.5602 7.21775 27.5411 6.349 25.3796C5.41605 23.0583 5 20.7885 5 18.0196C5 15.5879 5.47671 13.2278 6.41689 11.005C7.32457 8.85896 8.62358 6.93207 10.2778 5.27783C11.9321 3.62358 13.859 2.32457 16.005 1.41689C18.2278 0.47671 20.5879 0 23.0196 0C25.4514 0 27.8114 0.47671 30.0343 1.41689C32.1803 2.32457 34.1072 3.62358 35.7614 5.27782C37.4157 6.93207 38.7147 8.85896 39.6224 11.005C40.5625 13.2278 41.0392 15.5879 41.0392 18.0196C41.0392 20.7115 40.6176 22.9404 39.6722 25.2466C38.8251 27.313 37.6634 29.1965 36.1928 31.581L35.9965 31.8992C34.9409 33.6119 32.4523 36.8964 30.0792 39.7091C28.7578 41.2753 27.553 42.597 26.5949 43.5313C24.9988 45.0879 24.0298 45.6667 23.0196 45.6667Z" fill="white"/>
</g>
<path d="M23.02 26.03C27.4438 26.03 31.03 22.4438 31.03 18.02C31.03 13.5962 27.4438 10.01 23.02 10.01C18.5962 10.01 15.01 13.5962 15.01 18.02C15.01 22.4438 18.5962 26.03 23.02 26.03Z" fill="white"/>
<defs>
<filter id="filter0_d_1_478" x="0" y="0" width="46.0393" height="55.6666" filterUnits="userSpaceOnUse" color-interpolation-filters="sRGB">
<feFlood flood-opacity="0" result="BackgroundImageFix"/>
<feColorMatrix in="SourceAlpha" type="matrix" values="0 0 0 0 0 0 0 0 0 0 0 0 0 0 0 0 0 0 127 0" result="hardAlpha"/>
<feOffset dy="5"/>
<feGaussianBlur stdDeviation="2.5"/>
<feColorMatrix type="matrix" values="0 0 0 0 0 0 0 0 0 0 0 0 0 0 0 0 0 0 0.2 0"/>
<feBlend mode="normal" in2="BackgroundImageFix" result="effect1_dropShadow_1_478"/>
<feBlend mode="normal" in="SourceGraphic" in2="effect1_dropShadow_1_478" result="shape"/>
</filter>
</defs>
</svg>
