<svg width="21" height="21" viewBox="0 0 21 21" fill="none" xmlns="http://www.w3.org/2000/svg">
<path d="M10.5 21C16.299 21 21 16.299 21 10.5C21 4.70101 16.299 0 10.5 0C4.70101 0 0 4.70101 0 10.5C0 16.299 4.70101 21 10.5 21Z" fill="white"/>
<path d="M10.5 20C15.7467 20 20 15.7467 20 10.5C20 5.25329 15.7467 1 10.5 1C5.25329 1 1 5.25329 1 10.5C1 15.7467 5.25329 20 10.5 20Z" />
<path d="M10.5 15.75C13.3995 15.75 15.75 13.3995 15.75 10.5C15.75 7.60051 13.3995 5.25 10.5 5.25C7.60051 5.25 5.25 7.60051 5.25 10.5C5.25 13.3995 7.60051 15.75 10.5 15.75Z" />
</svg>
